<?xml version="1.0" encoding="UTF-8"?> <!-- Generated by IcoMoon.io --> <svg xmlns="http://www.w3.org/2000/svg" width="32" height="32" viewBox="0 0 32 32"><title>armchair-silhouette</title><path d="M28.368 14.696c-2.871 0-5.207 2.336-5.207 5.207v0.951c-1.153-0.412-3.383-0.951-7.16-0.951s-6.007 0.539-7.16 0.951v-0.951c0-2.871-2.336-5.207-5.207-5.207-1.795 0-3.255 1.46-3.255 3.255 0 1.317 0.786 2.498 2.004 3.005 0.365 0.152 0.599 0.506 0.599 0.9l0.651 2.604c0 2.337 1.77 4.267 4.040 4.525-0.534 0.255-0.907 0.797-0.907 1.427 0 0.877 0.711 1.587 1.587 1.587s1.587-0.711 1.587-1.587c0-0.608-0.346-1.129-0.849-1.397h13.821c-0.503 0.266-0.849 0.788-0.849 1.397 0 0.877 0.711 1.587 1.587 1.587s1.587-0.711 1.587-1.587c0-0.631-0.372-1.173-0.907-1.427 2.268-0.258 4.038-2.188 4.038-4.525l0.651-2.604c0-0.394 0.235-0.747 0.599-0.9 1.218-0.506 2.004-1.689 2.004-3.005 0.001-1.795-1.459-3.255-3.254-3.255z"></path><path d="M10.63 18.382c1.355-0.247 3.118-0.431 5.37-0.431s4.016 0.184 5.37 0.431c0.512-2.356 2.189-4.279 4.394-5.143v-3.475c0-5.392-4.372-9.764-9.765-9.764s-9.764 4.372-9.764 9.764v3.475c2.205 0.864 3.882 2.787 4.394 5.142z"></path></svg> 