<?xml version="1.0" encoding="UTF-8"?> <!-- Generated by IcoMoon.io --> <svg xmlns="http://www.w3.org/2000/svg" width="32" height="32" viewBox="0 0 32 32"><title>balalaika</title><path d="M12.988 17.942c-0.59 0-1.071 0.48-1.071 1.071s0.48 1.071 1.071 1.071 1.071-0.48 1.071-1.071-0.48-1.071-1.071-1.071z"></path><path d="M17.001 10.659l4.698-4.699 4.338 4.338-4.698 4.698z"></path><path d="M31.725 4.291l-4.017-4.017c-0.189-0.189-0.45-0.288-0.715-0.273-0.266 0.015-0.514 0.142-0.68 0.35l-3.362 4.203 4.494 4.494 4.203-3.362c0.208-0.167 0.336-0.414 0.35-0.68s-0.084-0.526-0.273-0.715z"></path><path d="M0.71 15.090c-0.328 0.082-0.586 0.334-0.676 0.659s0.002 0.674 0.241 0.913l15.063 15.063c0.178 0.178 0.418 0.275 0.663 0.275 0.428 0 0.805-0.291 0.909-0.71l3.615-14.46-5.354-5.354zM12.988 21.958c-1.624 0-2.946-1.322-2.946-2.946s1.322-2.946 2.946-2.946 2.946 1.322 2.946 2.946-1.322 2.946-2.946 2.946z"></path></svg> 