<?xml version="1.0" encoding="UTF-8"?> <!-- Generated by IcoMoon.io --> <svg xmlns="http://www.w3.org/2000/svg" width="32" height="32" viewBox="0 0 32 32"><title>bar</title><path d="M7.563 3.75h-1.517l-2.813 5.688h10.534l-2.813-5.688h-1.517v-1.875h13.125v1.875h-1.517l-2.813 5.688h10.534l-2.813-5.688h-1.517v-1.875h7.562v-1.875h-32v1.875h7.563z"></path><path d="M1.875 32h7.563v-7.563h-1.875v-1.875h5.625v1.875h-1.875v7.563h7.5v-7.563h-1.875v-1.875h5.625v1.875h-1.875v7.563h9.438v-13.188h1.875v-1.875h-15.063v-3.75h-1.875v-1.875h-1.875v1.875h-1.875v3.75h-1.875v-3.75h-1.875v-1.875h-1.875v1.875h-1.875v3.75h-3.813v1.875h1.875z"></path></svg> 