<?xml version="1.0" encoding="UTF-8"?> <!-- Generated by IcoMoon.io --> <svg xmlns="http://www.w3.org/2000/svg" width="32" height="32" viewBox="0 0 32 32"><title>bartender</title><path d="M12.25 0c-3.624 0-6.563 2.938-6.563 6.563 0 0.518 0.42 0.938 0.938 0.938h5.625c3.624 0 6.563-2.938 6.563-6.563v-0.938h-6.563z"></path><path d="M20.688 0.095c0 0.174 0 2.112 0 2.275 0 2.228 1.239 4.232 3.232 5.229l0.518 0.259v-3.171c0-2.264-1.613-4.157-3.75-4.593z"></path><path d="M23.081 9.276c-1.698-0.849-2.972-2.254-3.669-3.932-1.488 2.408-4.129 4.031-7.162 4.031h-4.688v2.813c0 4.653 3.785 8.438 8.438 8.438s8.438-3.785 8.438-8.438v-2.233l-1.357-0.679zM19.816 15.985c-0.137 0.504-0.66 0.795-1.151 0.658-0.994-0.27-1.903-0.765-2.665-1.447-0.762 0.681-1.671 1.176-2.665 1.447-0.499 0.137-1.015-0.157-1.151-0.658s0.159-1.015 0.658-1.151c0.878-0.239 1.664-0.722 2.273-1.399 0.384-0.428 1.384-0.428 1.769 0 0.609 0.677 1.395 1.16 2.273 1.399 0.499 0.136 0.795 0.651 0.658 1.151z"></path><path d="M17.724 26.25h-3.448l-0.933 0.311 2.657 4.554 2.657-4.554z"></path><path d="M10.672 21.399c-0.601-0.2-1.234 0.242-1.234 0.889v2.298c0 0.639 0.627 1.095 1.234 0.889l2.516-0.839v-2.399l-2.516-0.839z"></path><path d="M15.063 22.5h1.875v1.875h-1.875v-1.875z"></path><path d="M14.345 32l-2.824-4.832-0.256 0.085c-1.826 0.609-3.702-0.747-3.702-2.667v-2.298c0-0.915 0.426-1.747 1.168-2.282 0.112-0.081 0.234-0.134 0.353-0.197-0.332-0.302-0.652-0.618-0.943-0.961h-0.060l-4.391 2.195c-2.237 1.12-3.69 3.368-3.69 5.869v4.149c0 0.518 0.419 0.938 0.938 0.938h4.75v-2.938c0-0.518 0.419-0.938 0.938-0.938s0.938 0.419 0.938 0.938v2.938h6.782z"></path><path d="M28.373 21.044l-4.453-2.195h-0.060c-0.291 0.343-0.611 0.659-0.943 0.961 1.029 0.542 1.522 1.481 1.522 2.479v2.298c0 1.918-1.873 3.277-3.702 2.667l-0.256-0.085-2.824 4.832h6.782v-2.938c0-0.518 0.419-0.938 0.938-0.938s0.938 0.419 0.938 0.938v2.938h4.75c0.518 0 0.937-0.419 0.937-0.938v-4.149c0-2.501-1.39-4.75-3.627-5.869z"></path><path d="M21.328 21.4l-2.516 0.839v2.399l2.516 0.839c0.611 0.204 1.234-0.252 1.234-0.889v-2.298c0-0.628-0.608-1.092-1.234-0.889z"></path></svg> 