<?xml version="1.0" encoding="UTF-8"?> <!-- Generated by IcoMoon.io --> <svg xmlns="http://www.w3.org/2000/svg" width="32" height="32" viewBox="0 0 32 32"><title>bartender</title><path d="M19.75 14.063c0 0.808-0.516 1.523-1.282 1.779l-0.562 0.188-0.071 0.589c-0.341 2.819-2.742 4.944-5.584 4.944s-5.243-2.126-5.584-4.944l-0.071-0.589-0.562-0.188c-0.767-0.257-1.282-0.972-1.282-1.779 0-0.793 0.503-1.503 1.251-1.768l0.624-0.221v-2.698l8.439 0.001c0.517 0 0.936 0.419 0.936 0.936 0 1.037 0.849 1.869 1.886 1.875 1.029 0.006 1.864 0.845 1.864 1.875z"></path><path d="M5.625 7.5c-2.068 0-3.75-1.682-3.75-3.75s1.682-3.75 3.75-3.75c0 1.034 0.841 1.875 1.875 1.875h1.875c1.034 0 1.875 0.841 1.875 1.875v3.75z"></path><path d="M20.625 7.5v4.018c-0.681-0.736-1.652-1.199-2.728-1.206-0.011 0-0.018-0.003-0.022-0.006-0.003-1.547-1.263-2.806-2.811-2.806h-1.939v-3.75h3.75c2.067 0 3.75 1.683 3.75 3.75z"></path><path d="M9.375 25.518l-1.875 0.469v-2.549h1.875z"></path><path d="M11.25 23.438h1.875v1.875h-1.875z"></path><path d="M9.306 32h-9.306v-3.875c0-2.584 2.103-4.688 4.688-4.688h0.938v4.951l2.072-0.518z"></path><path d="M14.844 27.412l-1.787 4.588h-1.738l-1.787-4.588 0.896-0.224h3.52z"></path><path d="M16.875 25.987l-1.875-0.469v-2.081h1.875z"></path><path d="M20.765 23.535c-0.010 0.139-0.015 0.279-0.015 0.416v8.049h-5.681l1.609-4.13 2.072 0.518v-4.951h1.063c0.326 0 0.645 0.034 0.953 0.098z"></path><path d="M30.788 20.087c-0.427-0.427-0.663-0.996-0.663-1.6v-1.487h-5.625v1.487c0 0.604-0.236 1.172-0.663 1.6-0.689 0.689-1.106 1.579-1.194 2.538h9.339c-0.088-0.959-0.504-1.849-1.194-2.538zM22.625 32h9.375v-3.75h-9.375zM22.625 24.5v1.875h9.375v-1.875zM24.5 11.375v3.75h5.625v-3.75z"></path></svg> 