<?xml version="1.0" encoding="UTF-8"?> <!-- Generated by IcoMoon.io --> <svg xmlns="http://www.w3.org/2000/svg" width="32" height="32" viewBox="0 0 32 32"><title>batman</title><path d="M26.469 0l-5.432 6.585c-1.491-0.849-3.274-1.272-5.104-1.272-1.843 0-3.573 0.429-5.071 1.291l-5.317-6.604-0.004 16.541c-0.027 0.432 0 0.872 0 1.331 0 6.328 2.582 11.76 6.276 14.098-2.080-2.682-3.882-5.594-3.047-8.422 4.782-0.193 5.287-0.218 5.287-0.218l1.689 1.377 2.077-1.377c3.478 0.025 5.119 0.097 5.119 0.097 0.215 1.772-0.093 5.658-3.066 8.574 3.719-2.322 6.352-7.773 6.352-14.128 0-0.445-0.020-0.875-0.020-1.296l0.259-16.576zM13.592 18.653c-0.499 0.2-1.617 0.859-2.137 1.018s-1.238 0.26-1.518 0c-0.28-0.26-1.179-1.118-1.358-1.318-0.18-0.201-0.3-1.798 0.759-1.718 1.078 0.081 3.994 1.278 4.174 1.337s0.579 0.479 0.080 0.679zM23.135 18.353c-0.179 0.199-1.079 1.058-1.358 1.318-0.28 0.26-0.998 0.16-1.518 0s-1.637-0.818-2.137-1.018c-0.5-0.2-0.1-0.619 0.079-0.679s3.096-1.256 4.174-1.337c1.059-0.081 0.939 1.517 0.758 1.718z"></path></svg> 