<?xml version="1.0" encoding="UTF-8"?> <!-- Generated by IcoMoon.io --> <svg xmlns="http://www.w3.org/2000/svg" width="32" height="32" viewBox="0 0 32 32"><title>chef</title><path d="M26.909 26.182h-21.813c-0.401 0-0.727 0.325-0.727 0.727l-0.003 2.121c-0.001 0.793 0.308 1.539 0.868 2.1s1.306 0.871 2.099 0.871h17.335c1.636 0 2.967-1.331 2.967-2.967v-2.124c0-0.402-0.325-0.727-0.727-0.727z"></path><path d="M24 2.909c-0.445 0-0.903 0.045-1.387 0.135-1.664-1.94-4.049-3.044-6.613-3.044-4.812 0-8.727 3.915-8.727 8.727 0 0.401-0.326 0.727-0.727 0.727s-0.727-0.326-0.727-0.727c0-1.575 0.362-3.098 1.077-4.528 0.127-0.254 0.094-0.559-0.083-0.781-0.178-0.22-0.468-0.318-0.744-0.251-3.573 0.891-6.068 4.075-6.068 7.741 0 3.023 1.705 5.771 4.381 7.129l-0.008 5.961c0 0.192 0.076 0.378 0.212 0.515s0.322 0.213 0.515 0.213h21.809c0.402 0 0.727-0.325 0.727-0.727v-5.972c2.666-1.362 4.364-4.106 4.364-7.119-0-4.411-3.589-8-8-8zM10.643 20.199c-0.136 0.111-0.299 0.165-0.461 0.165-0.21 0-0.419-0.091-0.563-0.266-0.24-0.293-2.347-2.915-2.347-4.825 0-0.402 0.325-0.727 0.727-0.727s0.727 0.325 0.727 0.727c0 1.053 1.237 2.952 2.017 3.902 0.254 0.311 0.209 0.769-0.101 1.024zM16.727 19.636c0 0.402-0.325 0.727-0.727 0.727s-0.727-0.325-0.727-0.727v-4.364c0-0.402 0.325-0.727 0.727-0.727s0.727 0.325 0.727 0.727v4.364zM22.381 20.098c-0.144 0.175-0.352 0.266-0.563 0.266-0.163 0-0.326-0.054-0.461-0.165-0.31-0.255-0.356-0.713-0.102-1.023 0.78-0.952 2.017-2.854 2.017-3.903 0-0.402 0.325-0.727 0.727-0.727s0.727 0.325 0.727 0.727c0 1.91-2.107 4.532-2.347 4.825z"></path></svg> 