<?xml version="1.0" encoding="UTF-8"?> <!-- Generated by IcoMoon.io --> <svg xmlns="http://www.w3.org/2000/svg" width="32" height="32" viewBox="0 0 32 32"><title>christmas-tree-with-balls-and-a-star-on-top</title><path d="M14.456 4.752l1.544-0.811 1.544 0.811-0.294-1.719 1.247-1.217-1.724-0.252-0.773-1.564-0.772 1.564-1.726 0.252 1.249 1.217z"></path><path d="M22.403 12.093h0.557l-6.96-6.959-4.438 4.437z"></path><path d="M22.22 17.43l-1.295 0.228c0.211 0.126 0.363 0.349 0.363 0.614 0 0.399-0.325 0.722-0.724 0.722s-0.722-0.325-0.722-0.722c0-0.175 0.069-0.326 0.17-0.45l-2.253 0.4c0.556 0.048 0.997 0.499 0.997 1.067 0 0.599-0.486 1.084-1.083 1.084-0.601 0-1.085-0.484-1.085-1.084 0-0.428 0.254-0.791 0.614-0.968l-2.846 0.505c0.196 0.099 0.334 0.299 0.334 0.532 0 0.334-0.269 0.603-0.603 0.603s-0.601-0.27-0.601-0.603c0-0.158 0.063-0.298 0.162-0.406l-6.549 1.162-1.644 1.645 17.972 1.311-0.961-0.961h4.434l-4.681-4.679z"></path><path d="M10.565 16.646l-2.081 2.082 15.863-2.816-2.883-2.882-4.227-0.984c0.242 0.232 0.395 0.558 0.395 0.921 0 0.705-0.571 1.276-1.276 1.276s-1.273-0.571-1.273-1.276c0-0.574 0.38-1.052 0.9-1.212l-2.172-0.506c0.079 0.133 0.134 0.279 0.134 0.442 0 0.495-0.402 0.896-0.896 0.896-0.493 0-0.895-0.402-0.895-0.896 0-0.311 0.169-0.573 0.411-0.734l-1.939-0.451-1.587 1.587h2.431l-4.552 4.553 3.648-0.001z"></path><path d="M27.789 27.433l-3.149-3.149-3.12-0.227c0.169 0.173 0.275 0.408 0.275 0.667 0 0.53-0.428 0.959-0.957 0.959s-0.955-0.429-0.955-0.959c0-0.315 0.164-0.582 0.401-0.754l-5.321-0.389c0.134 0.135 0.217 0.319 0.217 0.525 0 0.415-0.335 0.751-0.75 0.751-0.414 0-0.749-0.335-0.749-0.751 0-0.249 0.129-0.459 0.317-0.595l-2.616-0.192c0.353 0.209 0.594 0.588 0.594 1.028 0 0.662-0.537 1.196-1.199 1.196-0.66 0-1.195-0.535-1.195-1.196 0-0.499 0.305-0.925 0.738-1.105l-1.786-0.13-4.323 4.324h10.358l-0.822 4.567h4.508l-0.824-4.567 10.359-0.001z"></path></svg> 