<?xml version="1.0" encoding="UTF-8"?> <!-- Generated by IcoMoon.io --> <svg xmlns="http://www.w3.org/2000/svg" width="32" height="32" viewBox="0 0 32 32"><title>cigar</title><path d="M15.78 16.941c2.098 0.903 3.901 2.237 5.131 3.974 1.516 2.141 1.963 4.583 1.388 7.007 1.362-0.103 2.735-0.233 4.014-0.392v-9.934c-3.446-0.429-7.583-0.658-10.313-0.658-0.074 0-0.147 0.003-0.22 0.003z"></path><path d="M7.246 22.129c-1.555-0.996-3.981-1.612-6.528-1.356-0.456 0.542-0.717 1.136-0.717 1.789 0 2.48 3.684 4.162 8.458 5.002 0.61-0.684 0.979-1.435 0.979-2.189 0-1.168-0.799-2.351-2.192-3.246z"></path><path d="M28.188 17.863v9.4c1.271-0.207 2.425-0.445 3.188-0.716l0.624-0.221v-7.527l-0.624-0.221c-0.763-0.27-1.917-0.509-3.188-0.716z"></path><path d="M8.445 17.563c-1.856 0.327-3.592 0.784-4.952 1.364 1.7 0.21 3.385 0.74 4.765 1.625 1.941 1.245 3.054 3.003 3.054 4.823 0 0.873-0.261 1.716-0.728 2.499 1.744 0.205 3.58 0.314 5.415 0.314 1.225 0 2.738-0.048 4.341-0.137 0.677-2.096 0.359-4.189-0.96-6.051-2.173-3.067-6.444-4.714-10.936-4.436z"></path><path d="M26.168 7.61c-0.373-1.116-1.428-1.923-2.668-1.923h-1.452c-0.661-1.143-1.89-1.875-3.236-1.875h-3.75c-2.068 0-3.75 1.682-3.75 3.75s1.682 3.75 3.75 3.75h0.16c0.387 1.091 1.43 1.875 2.652 1.875h8.599c1.438 0 2.846 0.583 3.864 1.6l1.663 1.6v-2.263c0-3.35-2.586-6.122-5.832-6.515z"></path></svg> 