<?xml version="1.0" encoding="UTF-8"?> <!-- Generated by IcoMoon.io --> <svg xmlns="http://www.w3.org/2000/svg" width="32" height="32" viewBox="0 0 32 32"><title>cigar-1</title><path d="M6.796 31.474c0.685 0.055 1.382 0.098 2.087 0.131v-12.337c-0.706 0.033-1.403 0.077-2.087 0.131v12.074z"></path><path d="M30.047 22.539c-1.039-0.678-2.495-1.279-4.329-1.785-3.645-1.007-8.474-1.561-13.596-1.561-0.385 0-0.769 0.004-1.151 0.010v12.468c0.382 0.006 0.765 0.010 1.151 0.010 5.122 0 9.951-0.554 13.596-1.561 1.834-0.506 3.29-1.107 4.329-1.785 1.296-0.846 1.953-1.821 1.953-2.898s-0.657-2.052-1.953-2.898z"></path><path d="M0 21.232v8.412c0 0.497 0.351 0.925 0.838 1.023 1.216 0.244 2.513 0.446 3.87 0.604v-11.666c-1.357 0.158-2.655 0.359-3.87 0.604-0.487 0.098-0.838 0.526-0.838 1.023z"></path><path d="M12.933 9.808c1.839-0.408 4.045-1.282 4.538-3.149 0.744-2.825 0.628-4.392 2.179-5.824 0.101-0.093 0.125-0.244 0.058-0.364s-0.208-0.179-0.341-0.141c-1.283 0.362-3.222 1.241-4.31 3.34-1.239 2.389-1.375 3.973-2.634 5.194-0.179 0.174-0.221 0.445-0.103 0.665s0.368 0.334 0.612 0.28z"></path><path d="M10.29 6.816c-1.283 0.362-3.222 1.241-4.31 3.34-1.239 2.389-1.375 3.973-2.634 5.194-0.179 0.174-0.221 0.445-0.103 0.665s0.369 0.334 0.612 0.28c1.839-0.408 4.045-1.282 4.538-3.149 0.744-2.825 0.628-4.392 2.179-5.824 0.101-0.093 0.125-0.244 0.058-0.364s-0.208-0.179-0.341-0.141z"></path></svg> 