<?xml version="1.0" encoding="UTF-8"?> <!-- Generated by IcoMoon.io --> <svg xmlns="http://www.w3.org/2000/svg" width="32" height="32" viewBox="0 0 32 32"><title>clown-hats</title><path d="M31.21 22.92c-0.695-1.418-1.797-3.152-3.105-4.884-1.037-1.374-4.574-5.857-6.57-5.857-0.318 0-0.613 0.096-0.857 0.278-0.157 0.12-0.218 0.17-2.551 4.45-1.066-2.351-5.248-11.522-7.044-15.462-0.324-0.71-1.332-0.71-1.656 0-2.437 5.356-9.428 20.735-9.428 21.003 0 1.056 1.333 2.828 10.258 2.828 1.282 0 2.401-0.037 3.386-0.104-0.712 1.311-1.497 2.762-2.366 4.365-0.196 0.362-0.163 0.805 0.085 1.132 0.2 0.266 0.511 0.417 0.837 0.417 0.076 0 0.152-0.007 0.228-0.023 18.753-4.162 18.753-4.162 19.002-4.35 1.060-0.803 0.439-2.448-0.219-3.793zM8.525 5.962l3.013-0.999c0.267 0.586 0.564 1.237 0.886 1.943l-5.086 1.662c0.424-0.932 0.825-1.811 1.187-2.606zM5.55 12.495l8.194-2.688c0.286 0.629 0.578 1.268 0.871 1.915l-10.241 3.361c0.384-0.844 0.78-1.714 1.176-2.588zM2.597 19.002l13.338-4.379c0.299 0.659 0.593 1.303 0.873 1.923l-15.38 5.045c0.27-0.605 0.679-1.51 1.169-2.589zM14.993 22.681l-4.709 1.545c-0.009 0-0.017 0-0.026 0-2.105 0-4.037-0.138-5.587-0.369l11.779-3.865c-0.436 0.807-0.92 1.697-1.457 2.689zM19.391 27.933c-0.607 0.461-1.475 0.336-1.93-0.269-0.46-0.609-0.339-1.475 0.271-1.934 0.605-0.459 1.475-0.335 1.931 0.274 0.459 0.606 0.337 1.472-0.273 1.93zM19.984 22.223c-1.038 0.781-2.507 0.583-3.305-0.443 0.71-1.307 1.416-2.606 2.063-3.792 0.651 0.049 1.281 0.343 1.708 0.907 0.79 1.045 0.579 2.536-0.466 3.328zM23.001 19.55c-0.834-1.107-0.614-2.682 0.492-3.515 0.348-0.264 0.747-0.411 1.155-0.467 0.825 0.864 1.722 1.908 2.622 3.1 0.039 0.054 0.075 0.108 0.114 0.158-0.154 0.466-0.445 0.898-0.866 1.218-1.109 0.834-2.683 0.613-3.518-0.493zM23.94 27.422c-0.501-0.866-0.295-1.982 0.52-2.599 0.886-0.668 2.148-0.491 2.816 0.395 0.3 0.398 0.422 0.871 0.391 1.332-1.123 0.269-2.436 0.583-3.726 0.872z"></path></svg> 