<?xml version="1.0" encoding="UTF-8"?> <!-- Generated by IcoMoon.io --> <svg xmlns="http://www.w3.org/2000/svg" width="32" height="32" viewBox="0 0 32 32"><title>cocktail-1</title><path d="M25.375 3.751h-1.118c-0.026 0.074-0.038 0.152-0.071 0.224l-1.592 3.526h2.781c1.553 0 2.812 1.259 2.812 2.812v3.75c0 0.607-0.197 1.165-0.523 1.624 0.332 1.291 0.523 2.628 0.523 4 0 0.099-0.017 0.194-0.019 0.292 2.221-1.052 3.831-3.296 3.831-5.917v-3.75c0-3.624-3.001-6.562-6.625-6.562z"></path><path d="M11.774 19.828l-0.657 2.629c0.902 0 1.8-0.232 2.554-0.733l-1.896-1.896z"></path><path d="M6.89 19.885c0.221 0.448 0.509 0.87 0.881 1.242 0.432 0.433 0.95 0.751 1.503 0.976l0.751-3.002-3.135 0.784z"></path><path d="M7.175 15.228c-0.565 0.855-0.809 1.855-0.755 2.842l2.878-0.72-2.123-2.123z"></path><path d="M18.651 15.389l-1.326 1.326 1.326 1.327 1.327-1.327z"></path><path d="M22.479 3.199c0.125-0.276 0.108-0.596-0.044-0.858s-0.423-0.434-0.725-0.461l-20.625-1.875c-0.371-0.037-0.801 0.163-0.978 0.498s-0.133 0.744 0.11 1.036l5.066 6.003c0.159 0.191 0.233 0.432 0.205 0.678-0.027 0.255-0.155 0.489-0.361 0.659-0.188 0.157-0.355 0.331-0.533 0.496h17.195c-0.31-0.286-0.623-0.571-0.962-0.832-0.333-0.256-0.441-0.71-0.265-1.101l1.916-4.243z"></path><path d="M23.483 11.25h-20.6c-1.812 2.412-2.882 5.356-2.882 8.437 0 2.346 0.647 4.579 1.693 6.562h22.988c1.046-1.984 1.631-4.216 1.631-6.562 0-3.105-1.015-6.032-2.83-8.437zM12.25 13.125c0.518 0 0.938 0.42 0.938 0.938s-0.42 0.938-0.938 0.938-0.938-0.42-0.938-0.938c0-0.518 0.42-0.938 0.938-0.938zM15.725 22.453c-2.585 2.587-6.743 2.539-9.28 0-2.429-2.428-2.637-6.644 0-9.28 0.366-0.366 0.96-0.366 1.326 0l7.955 7.954c0.366 0.366 0.366 0.959-0 1.326zM19.75 24.375c-0.518 0-0.938-0.42-0.938-0.938s0.42-0.938 0.938-0.938 0.938 0.42 0.938 0.938c-0 0.518-0.42 0.938-0.938 0.938zM21.966 17.377l-2.652 2.652c-0.366 0.366-0.96 0.366-1.326 0l-2.651-2.652c-0.366-0.366-0.366-0.959 0-1.326l2.651-2.651c0.366-0.366 0.959-0.366 1.326 0l2.652 2.651c0.176 0.176 0.275 0.414 0.275 0.663s-0.099 0.487-0.275 0.663z"></path><path d="M2.86 28.125c1.071 1.424 2.424 2.78 4.018 3.74 0.146 0.088 0.313 0.135 0.483 0.135h11.653c0.17 0 0.338-0.047 0.483-0.135 1.594-0.96 2.947-2.316 4.018-3.74h-20.655z"></path></svg> 