<?xml version="1.0" encoding="UTF-8"?> <!-- Generated by IcoMoon.io --> <svg xmlns="http://www.w3.org/2000/svg" width="32" height="32" viewBox="0 0 32 32"><title>coffee-pot</title><path d="M28 8.5h-11.071l-0.884 5.742c0.653 0.414 1.449 0.66 2.302 0.66 0.052 0 0.104-0.001 0.156-0.003l-0.007 0c0.035 0.001 0.077 0.002 0.118 0.002 0.986 0 1.898-0.311 2.646-0.84l-0.014 0.010c0.883-0.608 1.975-0.972 3.153-0.972 0.036 0 0.071 0 0.107 0.001l-0.005-0c0.037-0.001 0.080-0.001 0.124-0.001 0.807 0 1.572 0.176 2.26 0.492l-0.034-0.014-0.625-4.077h1.776c1.105 0 2 0.895 2 2v0 5.5c0 1.105-0.895 2-2 2v0h-0.314l-0.645-4.191c-0.676-0.446-1.506-0.711-2.398-0.711-0.051 0-0.101 0.001-0.151 0.003l0.007-0c-0.034-0.001-0.074-0.001-0.115-0.001-0.984 0-1.896 0.311-2.642 0.839l0.014-0.010c-0.884 0.609-1.977 0.973-3.156 0.973-0.037 0-0.075-0-0.112-0.001l0.006 0c-0.041 0.001-0.089 0.002-0.137 0.002-0.904 0-1.756-0.225-2.503-0.622l0.029 0.014-1.181 7.675c-0.026 0.16-0.041 0.344-0.041 0.532 0 1.933 1.567 3.5 3.5 3.5 0 0 0 0 0 0h6.675c0 0 0 0 0 0 1.933 0 3.5-1.567 3.5-3.5 0-0.188-0.015-0.372-0.043-0.552l0.003 0.020-0.457-2.968h0.16c1.656-0.002 2.998-1.344 3-3v-5.5c-0.002-1.656-1.344-2.998-3-3h-0z"></path><path d="M6.5 14.5h1c1.38-0.002 2.498-1.12 2.5-2.5v-0h-1c0 0.828-0.672 1.5-1.5 1.5v0h-1c-1.38 0.002-2.498 1.12-2.5 2.5v0h1c0-0.828 0.672-1.5 1.5-1.5v0z"></path><path d="M7 17h1c0-0.828 0.672-1.5 1.5-1.5v0h1c1.38-0.002 2.498-1.12 2.5-2.5v-0h-1c0 0.828-0.672 1.5-1.5 1.5v0h-1c-1.38 0.002-2.498 1.12-2.5 2.5v0z"></path><path d="M22.363 4.5c0.086-0.143 0.136-0.316 0.137-0.5v-0c0-0.552-0.448-1-1-1s-1 0.448-1 1v0c0.001 0.184 0.051 0.357 0.14 0.505l-0.003-0.005z"></path><path d="M25.5 7c0-0.828-0.672-1.5-1.5-1.5v0h-5c-0.828 0-1.5 0.672-1.5 1.5v0 0.5h8z"></path><path d="M2 28.5c0 0.828 0.672 1.5 1.5 1.5v0h25c0.828 0 1.5-0.672 1.5-1.5v0-0.5h-28z"></path><path d="M15.917 8.5h-2.917v0.77l2.473 2.12z"></path><path d="M7.5 27c2.208-0.003 3.997-1.792 4-4v-3.5h-8v3.5c0.003 2.208 1.792 3.997 4 4h0z"></path></svg> 