<?xml version="1.0" encoding="UTF-8"?> <!-- Generated by IcoMoon.io --> <svg xmlns="http://www.w3.org/2000/svg" width="32" height="32" viewBox="0 0 32 32"><title>coffee-break</title><path d="M12.572 27.261c0 2.613 2.102 4.739 4.687 4.739h4.057c2.584 0 4.687-2.126 4.687-4.739v-6.316h-13.43z"></path><path d="M5.37 4.819h10.375v2.537h-10.375z"></path><path d="M10.697 27.261v-8.196h11.024v-19.065h-21.659v28.332h10.721c-0.056-0.348-0.086-0.706-0.086-1.070zM17.898 17.011h-5.778v-1.88h5.778v1.88zM17.898 13.337h-5.778v-1.88h5.778v1.88zM3.495 2.939h14.125v6.296h-14.125zM8.508 24.718h-4.902v-1.88h4.902zM8.508 21.4h-4.902v-1.88h4.902zM9.278 17.011h-5.672v-1.88h5.672zM9.278 13.337h-5.672v-1.88h5.672z"></path><path d="M27.877 21.289v1.88h2.301v0.435c0 1.477-0.971 2.728-2.301 3.135v0.523c0 0.493-0.054 0.974-0.156 1.437 2.45-0.38 4.332-2.52 4.332-5.095v-2.314z"></path></svg> 