<?xml version="1.0" encoding="UTF-8"?> <!-- Generated by IcoMoon.io --> <svg xmlns="http://www.w3.org/2000/svg" width="32" height="32" viewBox="0 0 32 32"><title>coffee-seeds</title><path d="M10.722 15.611c-0.328-0.537-0.728-1.099-1.298-1.707-8.032-7.618-2.57-11.3-2.57-11.3-0.863 3.659 0.098 4.582 3.984 9.077 0.775 0.895 1.296 1.699 1.667 2.436 1.437-1.009 2.953-1.636 4.414-1.911-0.185-1.282-0.543-2.603-1.113-3.911-2.397-5.49-7.399-8.605-11.171-6.957s-4.884 7.433-2.489 12.921c1.219 2.79 3.111 4.957 5.171 6.206 0.525-1.201 1.235-2.399 2.153-3.518 0.391-0.484 0.82-0.916 1.251-1.335z"></path><path d="M23.364 13.957c-1.378-1.125-3.227-1.41-5.177-1.046-1.463 0.273-2.977 0.901-4.416 1.911-0.614 0.433-1.209 0.94-1.781 1.494-0.431 0.419-0.855 0.851-1.253 1.337-0.914 1.121-1.626 2.316-2.151 3.52-1.644 3.771-1.349 7.623 1.072 9.598 3.189 2.599 8.845 0.944 12.63-3.699s4.267-10.514 1.078-13.115zM17.007 24.203c-2.765 6.864-6.868 4.312-6.868 4.312s2.662-0.112 4.241-4.554c0.275-0.936 0.572-1.728 0.881-2.462 0.846-2.008 1.795-3.317 2.745-4.131 2.647-2.273 5.248-0.863 5.248-0.863-3.651 0.908-4.027 2.185-6.247 7.698z"></path><path d="M21.553 0.773c-2.24 1.644-2.301 5.368-0.134 8.32s5.738 4.013 7.979 2.371c2.24-1.644 2.301-5.368 0.132-8.32-2.165-2.953-5.738-4.013-7.977-2.371zM28.085 10.876c0 0 0.446-1.667-2.023-3.225-6.031-3.305-2.938-6.477-2.938-6.477-0.14 2.383 0.584 2.784 3.594 4.877 3.752 2.607 1.367 4.825 1.367 4.825z"></path></svg> 