<?xml version="1.0" encoding="UTF-8"?> <!-- Generated by IcoMoon.io --> <svg xmlns="http://www.w3.org/2000/svg" width="32" height="32" viewBox="0 0 32 32"><title>coffee-machine</title><path d="M14 3c0 1.104 0.896 2 2 2s2-0.896 2-2v-1h-4z"></path><path d="M6 12h5.5c0.133 0 0.26 0.053 0.354 0.146l0.854 0.854h6.586l0.854-0.854c0.093-0.094 0.221-0.146 0.354-0.146h5.5v-6h-20zM20 8.5c0-0.276 0.224-0.5 0.5-0.5h4c0.276 0 0.5 0.224 0.5 0.5v2c0 0.276-0.224 0.5-0.5 0.5h-4c-0.276 0-0.5-0.224-0.5-0.5zM13 8c0-0.276 0.224-0.5 0.5-0.5h5c0.276 0 0.5 0.224 0.5 0.5v3c0 0.276-0.224 0.5-0.5 0.5h-5c-0.276 0-0.5-0.224-0.5-0.5zM7 8.5c0-0.276 0.224-0.5 0.5-0.5h4c0.276 0 0.5 0.224 0.5 0.5v2c0 0.276-0.224 0.5-0.5 0.5h-4c-0.276 0-0.5-0.224-0.5-0.5z"></path><path d="M19.5 20v2c0.552 0 1-0.448 1-1s-0.448-1-1-1z"></path><path d="M15.5 16h1v1h-1z"></path><path d="M15 24h2c0.828 0 1.5-0.672 1.5-1.5v-2.5h-5v2.5c0 0.828 0.671 1.5 1.5 1.5z"></path><path d="M23 9h1v1h-1z"></path><path d="M12.5 14c-0.133 0-0.26-0.053-0.354-0.146l-0.854-0.854h-3.293v11h5.013c-0.331-0.43-0.511-0.957-0.513-1.5v-3c0-0.276 0.224-0.5 0.5-0.5h6c0.052 0.003 0.102 0.013 0.15 0.031 0.116-0.021 0.233-0.031 0.35-0.031 1.105 0 2 0.895 2 2s-0.895 2-2 2c-0.017 0-0.033-0.004-0.050-0.005-0.076 0.366-0.235 0.709-0.463 1.005h5.013v-11h-3.293l-0.854 0.854c-0.093 0.094-0.221 0.146-0.354 0.146h-1v1.5c0 0.276-0.224 0.5-0.5 0.5h-0.5v1.5c0 0.276-0.224 0.5-0.5 0.5h-2c-0.276 0-0.5-0.224-0.5-0.5v-1.5h-0.5c-0.276 0-0.5-0.224-0.5-0.5v-1.5z"></path><path d="M26 30v-3h-20v3h1v-0.5c0-0.276 0.224-0.5 0.5-0.5h17c0.276 0 0.5 0.224 0.5 0.5v0.5z"></path><path d="M7 25h18v1h-18z"></path><path d="M14.5 14h3v1h-3z"></path><path d="M10 9h1v1h-1z"></path><path d="M8 9h1v1h-1z"></path><path d="M21 9h1v1h-1z"></path><path d="M14 8.5h4v2h-4z"></path><path d="M19.494 5c-0.27 0-0.542-0.072-0.787-0.224l0.526-0.85c0.236 0.146 0.544 0.072 0.689-0.162 0.070-0.114 0.093-0.248 0.061-0.377s-0.11-0.24-0.223-0.311c-0.079-0.049-0.169-0.075-0.262-0.075h-0.498v-1h0.5c0.279 0.001 0.55 0.079 0.787 0.225 0.341 0.211 0.579 0.542 0.671 0.933s0.026 0.792-0.186 1.133c-0.284 0.457-0.775 0.709-1.277 0.709z"></path></svg> 