<?xml version="1.0" encoding="UTF-8"?> <!-- Generated by IcoMoon.io --> <svg xmlns="http://www.w3.org/2000/svg" width="32" height="32" viewBox="0 0 32 32"><title>coffee-cup</title><path d="M19.5 22.5c0 1.933-1.567 3.5-3.5 3.5s-3.5-1.567-3.5-3.5c0-1.933 1.567-3.5 3.5-3.5s3.5 1.567 3.5 3.5z"></path><path d="M9.572 15.5h0.928v1h-0.9l0.372 13.014c0.008 0.27 0.229 0.485 0.5 0.485 0 0 0 0 0 0h11.056c0 0 0 0 0 0 0.271 0 0.492-0.216 0.5-0.485l0-0.001 0.372-13.014h-10.9v-1h10.929l0.057-2h-12.971zM16 18c2.485 0 4.5 2.015 4.5 4.5s-2.015 4.5-4.5 4.5c-2.485 0-4.5-2.015-4.5-4.5v0c0.003-2.484 2.016-4.497 4.5-4.5h0z"></path><path d="M24 10h-16c-0.276 0-0.5 0.224-0.5 0.5v0 2h17v-2c0-0.276-0.224-0.5-0.5-0.5v0z"></path><path d="M21 6.614v-3.753l2.658-0.886-0.316-0.95-3 1c-0.2 0.068-0.342 0.255-0.342 0.474 0 0 0 0.001 0 0.001v-0 3.263c-1.117-0.79-2.506-1.263-4.007-1.263-2.965 0-5.499 1.847-6.514 4.452l-0.016 0.048h13.074c-0.363-0.929-0.885-1.723-1.538-2.387l0.001 0.001z"></path></svg> 