<?xml version="1.0" encoding="UTF-8"?> <!-- Generated by IcoMoon.io --> <svg xmlns="http://www.w3.org/2000/svg" width="32" height="32" viewBox="0 0 32 32"><title>coke-bottle</title><path d="M10.871 19.668l0.084 0.536 0.205-0.054c0.347-0.090 0.713-0.136 1.088-0.136 1.635 0 3.385 0.885 4.459 2.256 0.954 1.201 2.241 1.959 3.723 2.19l0.222 0.035-0.001-0.225c-0.004-1.536 0.241-3.097 0.478-4.606 0.057-0.366 0.117-0.744 0.172-1.117 0.348-2.359 0.124-4.594-0.684-6.834-0.089-0.248-0.18-0.495-0.27-0.742-1.009-2.762-1.962-5.372-1.446-8.398 0.327-0.279 0.513-0.68 0.513-1.111 0-0.807-0.657-1.463-1.463-1.463h-3.901c-0.807 0-1.463 0.656-1.463 1.463 0 0.431 0.186 0.832 0.512 1.111 0.517 3.026-0.437 5.636-1.446 8.398-0.090 0.247-0.18 0.494-0.27 0.742-0.808 2.239-1.032 4.475-0.684 6.834 0.055 0.374 0.115 0.753 0.172 1.121zM15.219 3.134h1.562c-0.301 3.171 0.695 5.896 1.658 8.534l0.038 0.105c0.076 0.209 0.153 0.419 0.229 0.63 0.157 0.436 0.291 0.881 0.398 1.326h-6.209c0.107-0.446 0.241-0.891 0.398-1.327 0.076-0.21 0.152-0.419 0.228-0.629l0.038-0.105c0.964-2.638 1.96-5.363 1.659-8.534z"></path><path d="M21.331 28.164c-0.298-0.782-0.493-1.587-0.595-2.46l-0.024-0.202-0.2 0.035c-0.253 0.045-0.516 0.067-0.781 0.067-1.467 0-3.032-0.701-4.085-1.83-0.166-0.178-0.328-0.364-0.484-0.544-0.492-0.567-1.001-1.152-1.721-1.56-0.616-0.349-1.33-0.556-2.123-0.614l-0.236-0.017 0.032 0.235c0.3 2.185 0.454 4.532-0.444 6.888-0.327 0.859-0.31 1.641 0.049 2.262 0.41 0.708 1.229 1.179 2.37 1.362 0.726 0.117 1.78 0.171 2.41 0.203 0.225 0.011 0.778 0.011 1.003 0 0.63-0.033 1.683-0.087 2.41-0.203 1.141-0.182 1.96-0.653 2.37-1.362 0.359-0.621 0.376-1.403 0.049-2.262z"></path></svg> 