<?xml version="1.0" encoding="UTF-8"?> <!-- Generated by IcoMoon.io --> <svg xmlns="http://www.w3.org/2000/svg" width="32" height="32" viewBox="0 0 32 32"><title>cord-microphone</title><path d="M11.772 5.079c-0.106-1.076-0.514-2.062-1.138-2.874-0.978 0.297-2.774 1.127-4.483 3.43-1.927 2.596-2.673 4.197-2.918 4.805 0.855 0.522 1.856 0.83 2.932 0.83 0 0 0.202-1.384 2.328-3.763 2.124-2.378 3.28-2.428 3.28-2.428z"></path><path d="M5.101 4.673c1.743-2.079 3.481-3.087 4.46-3.534-0.944-0.715-2.121-1.139-3.397-1.139-3.112 0-5.635 2.523-5.635 5.635 0 1.517 0.602 2.89 1.576 3.903 0.284-0.788 1.068-2.566 2.996-4.864z"></path><path d="M15.88 10.724l-3.795-4.948c0 0-3.391 1.074-5.010 5.729l5.516 2.935 13.308 11.133c0 0 0.673-0.064 1.392-0.606l2.034 1.593c0.517 0.403 0.849 0.978 0.934 1.616 0.086 0.633-0.081 1.254-0.467 1.748s-0.95 0.805-1.585 0.874c-0.643 0.067-1.279-0.115-1.795-0.519l-0.889-0.695c-0.259-0.204-0.632-0.157-0.834 0.101-0.203 0.259-0.157 0.632 0.102 0.835l0.888 0.695c0.656 0.513 1.446 0.786 2.26 0.785 0.131 0 0.262-0.007 0.395-0.021 0.957-0.104 1.806-0.573 2.392-1.323s0.839-1.687 0.709-2.64c-0.128-0.947-0.618-1.797-1.38-2.394l-1.947-1.523c0.301-0.443 0.561-1.017 0.723-1.765l-12.955-11.609zM11.135 11.745c-0.692 0-1.252-0.56-1.252-1.252s0.56-1.252 1.252-1.252 1.253 0.56 1.253 1.252c0 0.692-0.561 1.252-1.253 1.252zM15.88 15.009c-0.336 0-0.607-0.272-0.607-0.607s0.272-0.607 0.607-0.607c0.335 0 0.607 0.272 0.607 0.607-0 0.335-0.272 0.607-0.607 0.607zM17.348 16.281c-0.335 0-0.608-0.272-0.608-0.607 0-0.336 0.273-0.607 0.608-0.607s0.607 0.272 0.607 0.607c0 0.335-0.272 0.607-0.607 0.607z"></path></svg> 