<?xml version="1.0" encoding="UTF-8"?> <!-- Generated by IcoMoon.io --> <svg xmlns="http://www.w3.org/2000/svg" width="32" height="32" viewBox="0 0 32 32"><title>cup-of-hot-chocolate</title><path d="M23.758 25.716c5.297-0.213 7.651-2.624 7.651-5.574 0-2.563-1.778-4.719-5.718-5.381 0.018-0.953 0.019-1.873 0.019-2.731h-25.121c0 5.613 0.006 13.765 5.049 17.659-3.060 0.234-5.049 0.607-5.049 1.027 0 0.71 5.624 1.285 12.561 1.285s12.56-0.575 12.56-1.285c0-0.419-1.989-0.793-5.048-1.027 1.369-1.056 2.369-2.424 3.096-3.972zM25.599 17.201c2.21 0.512 2.605 1.596 2.58 2.999-0.028 1.593-0.49 2.672-3.508 3.043 0.546-1.939 0.804-4.022 0.928-6.042zM3.622 13.977h3.927c-1.76 5.194 1.21 13.413 1.209 13.413-6.42-4.921-5.136-13.413-5.136-13.413z"></path><path d="M15.206 8.644c0.499-4.524 10.488-2.261 8.406-8.134-0.318-0.898-1.756-0.511-1.435 0.395 0.913 2.575-2.556 2.889-4.322 3.479-2.121 0.709-3.877 1.895-4.138 4.26-0.105 0.953 1.384 0.943 1.488 0z"></path><path d="M22.296 5.478c-1.948 0.459-3.728 1.293-4.335 3.341-0.273 0.923 1.163 1.314 1.435 0.395 0.67-2.261 3.641-2.299 5.537-2.85 2.037-0.591 3.202-2.002 2.922-4.168-0.122-0.938-1.61-0.95-1.488 0 0.338 2.619-2.072 2.809-4.071 3.282z"></path></svg> 