<?xml version="1.0" encoding="UTF-8"?> <!-- Generated by IcoMoon.io --> <svg xmlns="http://www.w3.org/2000/svg" width="32" height="32" viewBox="0 0 32 32"><title>dancing-girl</title><path d="M26.517 6.847c-3.752 0-5.193 0-8.946 0-0.067 0-0.126 0.011-0.188 0.019-0.231-0.231-0.49-0.422-0.778-0.525-1.004 0.884-2.116 2.35-2.116 2.35s-0.224-1.583-0.676-2.475c-0.661 0.159-1.255 0.444-1.732 0.814-0.089 0.034-0.18 0.078-0.271 0.135-0.976 0.607-1.953 1.213-2.93 1.82-0.625-1.114-1.25-2.227-1.875-3.341-0.912-1.625-3.409-0.168-2.495 1.458 0.867 1.546 1.734 3.091 2.602 4.637 0.377 0.672 1.316 0.928 1.977 0.518 0.57-0.354 1.14-0.708 1.71-1.062-0.081 1.375-0.262 2.798-0.995 4.219l-5.719 6.026h3.954c-1.131 2.679-2.264 5.358-3.396 8.037-0.716 1.695 1.773 3.17 2.496 1.46 1.337-3.167 2.674-6.331 4.012-9.497h1.642l0.307 4.033c0 0 0.069 0.379 0.145 0.525 0.038 0.24 0.141 0.481 0.329 0.709 1.078 1.312 2.327 3.483 3.663 4.801 1.41 1.392 2.984-0.457 1.714-1.96-0.885-0.931-3.022-4.528-3.022-4.528s-0.001-0.112-0.006-0.169c-0.121-1.436-0.232-2.312-0.306-3.412h3.351l-3.057-5.924 2.397-5.779c3.221 0 4.712 0 8.209 0 1.863 0.001 1.863-2.889 0-2.889z"></path><path d="M10.655 6.064c0.139 0.174 0.334 0.315 0.558 0.39 0.223 0.074 0.478 0.092 0.731 0.009 0.126-0.042 0.25-0.111 0.354-0.207 0.106-0.096 0.188-0.217 0.241-0.344 0.106-0.258 0.098-0.513 0.059-0.729-0.037-0.201-0.104-0.378-0.181-0.543-0.109-0.37-0.23-0.715-0.334-1.059-0.109-0.342-0.199-0.68-0.265-1.004s-0.095-0.639-0.061-0.904c0.038-0.26 0.124-0.461 0.304-0.628 0.039-0.023 0.078-0.045 0.119-0.062 0.060-0.030 0.123-0.049 0.189-0.066 0.134-0.033 0.287-0.041 0.457-0.024 0.171 0.018 0.354 0.061 0.543 0.121 0.009 0.003 0.019 0.007 0.029 0.009-0.708 0.66-1.043 1.648-0.86 2.621 0.189 1.416 1.401 2.513 2.869 2.513 1.598 0 2.897-1.299 2.897-2.896 0-0.62-0.198-1.194-0.531-1.665-0.717-1.144-2.167-1.654-3.469-1.142-0.213 0.083-0.41 0.19-0.589 0.315-0.030-0.041-0.061-0.081-0.094-0.119-0.15-0.174-0.333-0.329-0.553-0.447s-0.481-0.196-0.76-0.201c-0.139-0.003-0.28 0.016-0.418 0.048-0.137 0.034-0.268 0.087-0.39 0.148-0.014 0.007-0.025 0.015-0.038 0.023l-0.031 0.024c-0.194 0.149-0.371 0.343-0.499 0.564-0.13 0.22-0.207 0.462-0.247 0.696-0.080 0.471-0.023 0.907 0.069 1.306 0.094 0.401 0.237 0.769 0.388 1.123 0.078 0.176 0.158 0.348 0.238 0.517l0.241 0.495 0.022 0.048c0.071 0.122 0.127 0.246 0.156 0.36 0.031 0.113 0.032 0.213 0.013 0.273s-0.049 0.1-0.118 0.133c-0.068 0.032-0.168 0.040-0.269 0.014-0.202-0.050-0.397-0.202-0.531-0.448-0.137-0.246-0.203-0.569-0.257-0.928-0.201 0.301-0.308 0.68-0.24 1.085 0.034 0.202 0.12 0.406 0.259 0.581zM14.065 2.151c1.020 1.414 3.49 1.735 3.856 1.776-0.296 1.115-1.311 1.94-2.517 1.94-1.164 0-2.15-0.765-2.485-1.818 0.426-0.237 1.271-0.846 1.146-1.898z"></path></svg> 