<?xml version="1.0" encoding="UTF-8"?> <!-- Generated by IcoMoon.io --> <svg xmlns="http://www.w3.org/2000/svg" width="32" height="32" viewBox="0 0 32 32"><title>delivery-truck</title><path d="M1.123 19.74v-13.615c0-0.757 0.613-1.37 1.37-1.37h13.608c0.757 0 1.37 0.613 1.37 1.37v13.615c0 0.252-0.204 0.457-0.457 0.457h-15.434c-0.252 0-0.457-0.204-0.457-0.457zM12.112 24.404c0 1.569-1.272 2.841-2.841 2.841s-2.841-1.272-2.841-2.841c0-1.569 1.272-2.841 2.841-2.841s2.841 1.272 2.841 2.841zM10.691 24.404c0-0.785-0.636-1.421-1.421-1.421s-1.421 0.636-1.421 1.421 0.636 1.421 1.421 1.421 1.421-0.636 1.421-1.421zM6.823 21.563h-6.367c-0.252 0-0.457 0.204-0.457 0.457v1.385c0 0.252 0.204 0.457 0.457 0.457h5.103c0.133-0.914 0.595-1.722 1.263-2.299zM26.977 24.404c0 1.569-1.272 2.841-2.841 2.841s-2.841-1.272-2.841-2.841c0-1.569 1.272-2.841 2.841-2.841s2.841 1.272 2.841 2.841zM25.557 24.404c0-0.785-0.636-1.421-1.421-1.421s-1.421 0.636-1.421 1.421 0.636 1.421 1.421 1.421 1.421-0.636 1.421-1.421zM32 22.019v1.385c0 0.252-0.204 0.457-0.457 0.457h-3.697c-0.264-1.814-1.825-3.212-3.71-3.212s-3.446 1.398-3.711 3.212h-7.444c-0.133-0.914-0.595-1.722-1.263-2.299h7.059v-13.061c0-0.504 0.409-0.913 0.913-0.913h4.311c1.214 0 2.348 0.603 3.027 1.609l2.779 4.116c0.408 0.604 0.625 1.316 0.625 2.044v6.205h1.111c0.252 0 0.457 0.204 0.457 0.457zM27.368 13.419l-2.222-3.158c-0.086-0.122-0.225-0.194-0.373-0.194h-3.466c-0.252 0-0.457 0.204-0.457 0.457v3.158c0 0.252 0.204 0.457 0.457 0.457h5.689c0.37 0 0.586-0.417 0.373-0.719z"></path></svg> 