<?xml version="1.0" encoding="UTF-8"?> <!-- Generated by IcoMoon.io --> <svg xmlns="http://www.w3.org/2000/svg" width="32" height="32" viewBox="0 0 32 32"><title>dinner</title><path d="M16.511 4.807c-5.853 0-10.598 4.745-10.598 10.598s4.745 10.598 10.598 10.598 10.598-4.745 10.598-10.598-4.745-10.598-10.598-10.598zM16.511 23.446c-4.434 0-8.041-3.607-8.041-8.041s3.607-8.041 8.041-8.041 8.041 3.607 8.041 8.041-3.607 8.041-8.041 8.041z"></path><path d="M16.511 9.519c-3.245 0-5.886 2.64-5.886 5.886s2.64 5.886 5.886 5.886c3.245 0 5.886-2.64 5.886-5.886s-2.64-5.886-5.886-5.886z"></path><path d="M31.332 16.293v-12.878c0-0.124-0.079-0.235-0.197-0.274s-0.248 0-0.323 0.099c-1.607 2.119-2.476 4.705-2.476 7.364v4.711c0 0.54 0.438 0.978 0.978 0.978h0.408c-0.402 4.153-0.668 9.961-0.668 10.641 0 1.071 0.659 1.94 1.473 1.94s1.473-0.869 1.473-1.94c0-0.68-0.266-6.489-0.668-10.642z"></path><path d="M4.276 13.74c0.815-0.494 1.36-1.389 1.36-2.412l-0.404-6.601c-0.015-0.252-0.224-0.448-0.476-0.448-0.273 0-0.49 0.228-0.476 0.501l0.263 5.294c0 0.298-0.241 0.539-0.539 0.539s-0.539-0.241-0.539-0.539l-0.131-5.292c-0.007-0.28-0.236-0.503-0.515-0.503s-0.508 0.223-0.515 0.503l-0.131 5.292c0 0.298-0.241 0.539-0.539 0.539s-0.539-0.241-0.539-0.539l0.263-5.294c0.014-0.272-0.204-0.501-0.476-0.501-0.252 0-0.461 0.196-0.476 0.448l-0.404 6.601c0 1.023 0.545 1.918 1.36 2.412 0.53 0.321 0.826 0.922 0.758 1.539-0.46 4.147-0.773 10.918-0.773 11.656 0 1.071 0.659 1.94 1.473 1.94s1.473-0.869 1.473-1.94c0-0.738-0.313-7.509-0.773-11.656-0.068-0.616 0.228-1.217 0.758-1.539z"></path></svg> 