<?xml version="1.0" encoding="UTF-8"?> <!-- Generated by IcoMoon.io --> <svg xmlns="http://www.w3.org/2000/svg" width="32" height="32" viewBox="0 0 32 32"><title>dj-hand-motion</title><path d="M17.938 23.998c-0.183-0.129-0.355-0.246-0.498-0.339l-0.072-0.047-0.060-0.062c-0.097-0.101-0.574-0.641-0.492-1.36 0.035-0.319 0.196-0.78 0.764-1.156l0.115-0.077 0.134-0.030c0.123-0.027 0.256-0.041 0.395-0.041 0.587 0 1.294 0.259 1.927 0.567 0.070-0.11 0.135-0.223 0.201-0.336-0.063-0.072-0.129-0.144-0.2-0.218-0.353-0.365-0.69-0.704-1.030-1.045-0.798-0.802-1.624-1.631-2.678-2.843l-0.051-0.065c-0.561-0.812-0.391-1.418-0.24-1.706 0.258-0.492 0.831-0.793 1.459-0.771-0.358-0.495-0.472-0.833-0.413-1.132-0.001-0.369 0.133-0.724 0.39-1.014 0.323-0.367 0.814-0.596 1.281-0.596 0.339 0 0.647 0.122 0.865 0.343 0.103 0.104 0.404 0.387 0.816 0.77 0-0.043 0.004-0.084 0.011-0.129 0.051-0.382 0.21-0.718 0.439-0.972-1.593-3.941-5.454-6.723-9.965-6.723-5.936 0-10.747 4.811-10.747 10.747s4.811 10.748 10.747 10.748c2.626 0 5.033-0.945 6.901-2.512zM11.247 5.765h0.001c2.587-0.233 4.422 1.16 4.422 1.16l-2.462 4.411c-0.602-0.466-1.962-0.51-1.962-0.51s0-5.061 0-5.061zM6.954 15.762c0-2.366 1.927-4.292 4.295-4.292 2.366 0 4.293 1.926 4.293 4.292 0 2.368-1.927 4.293-4.293 4.293-2.368 0-4.295-1.926-4.295-4.293zM20.704 10.702c-0.007-0.015-0.011-0.030-0.016-0.042 0.005 0.010 0.010 0.017 0.017 0.030 0 0.002-0.001 0.009-0.001 0.012zM15.086 15.762c0-2.116-1.721-3.839-3.838-3.839-2.118 0-3.839 1.723-3.839 3.839 0 2.117 1.722 3.838 3.839 3.838s3.838-1.721 3.838-3.838zM9.339 15.762c0-1.053 0.855-1.906 1.91-1.906s1.907 0.854 1.907 1.906c0 1.055-0.853 1.908-1.907 1.908s-1.91-0.853-1.91-1.908zM27.324 27.181c0 0 0.169-0.562-0.841-0.711 0 0-2.42-0.036-4.239-0.633-0.538-0.259-1.862-0.607-2.338-1.203s-1.958-1.559-1.958-1.559-0.754-0.788 0.146-1.386c1.060-0.233 3.344 1.358 3.344 1.358s0.975 0.075 0.736-0.585c0 0-0.287-0.903-1.384-2.041-1.179-1.223-2.198-2.155-3.682-3.861-0.85-1.23 0.649-1.558 1.059-1.139 0.142-0.060 4.415 3.995 4.722 3.645 0.206-0.236-5.155-5.015-4.837-5.597-0.097-0.746 0.91-1.196 1.261-0.842 0.396 0.401 5.91 5.504 5.77 4.985-0.165-0.613-3.733-4.383-3.681-4.765 0.109-0.822 0.949-1.145 1.47-0.456 0.125 0.165 4.105 5.242 4.224 4.72 0.14-0.615-1.357-2.124-1.999-3.52-0.374-0.812 0.704-0.962 1.089-0.353 0.675 1.075 3.221 4.527 3.346 4.775 0 0 1.361 2.169 2.186 5.289l0.282 0.999-4.676 2.878zM2.446 5.956c0.051-0.107 1.278-2.618 4.152-2.618v0.637c-2.466 0-3.532 2.164-3.578 2.256l-0.574-0.274zM0.575 5.205l-0.575-0.273c0.021-0.042 2.046-4.191 6.647-4.191v0.636c-4.191 0-6.054 3.791-6.072 3.829zM15.606 26.867l0.452 0.447c-0.084 0.084-2.068 2.052-4.784 1.107l0.21-0.601c2.328 0.812 4.049-0.881 4.122-0.954zM17.578 28.639l0.452 0.447c-0.032 0.032-3.31 3.285-7.654 1.773l0.209-0.6c3.957 1.378 6.964-1.589 6.994-1.62z"></path></svg> 