<?xml version="1.0" encoding="UTF-8"?> <!-- Generated by IcoMoon.io --> <svg xmlns="http://www.w3.org/2000/svg" width="32" height="32" viewBox="0 0 32 32"><title>drink-beer-jar</title><path d="M25.289 13.35h-1.422c-0.294 0-0.578 0.030-0.856 0.081v-3.212c0-0.175-0.020-0.345-0.052-0.511 0.935-0.692 1.547-1.792 1.547-3.042 0-2.326-2.142-4.192-4.501-3.725-0.781-0.821-1.894-1.285-3.038-1.227-0.731-1.059-1.947-1.714-3.245-1.714-1.054 0-2.050 0.418-2.784 1.146-0.195-0.080-0.395-0.144-0.598-0.191l-0.256-0.050c-0.197-0.031-0.393-0.048-0.595-0.052-0.295-0.023-0.579-0.022-0.859 0.002h-0.076v0.006c-1.677 0.169-3.090 1.162-3.644 2.547-1.647 0.312-2.896 1.763-2.896 3.496 0 1.21 0.609 2.276 1.533 2.92-0.019 0.13-0.039 0.259-0.039 0.395v19.219c0 1.413 1.149 2.564 2.562 2.564h14.377c1.413 0 2.564-1.149 2.564-2.564v-3.925c0.278 0.052 0.562 0.083 0.856 0.083h1.422c2.59 0 4.698-2.109 4.698-4.7v-2.845c0-2.592-2.108-4.701-4.698-4.701zM21.302 29.438c0 0.472-0.381 0.854-0.854 0.854h-14.377c-0.472 0-0.854-0.383-0.854-0.854v-19.219c0-0.472 0.383-0.854 0.854-0.854h14.377c0.473 0 0.854 0.383 0.854 0.854v19.219zM22.062 8.244v0c-0.44-0.362-0.999-0.589-1.614-0.589h-14.377c-0.651 0-1.238 0.251-1.691 0.651-0.4-0.339-0.657-0.838-0.657-1.402 0-1.016 0.826-1.846 1.844-1.849l0.699-0.003 0.136-0.685c0.159-0.803 0.991-1.65 2.267-1.799h0.941c0.383 0.027 0.751 0.151 1.076 0.365l0.706 0.467 0.473-0.701c0.418-0.62 1.113-0.991 1.86-0.991 0.868 0 1.639 0.492 2.017 1.285l0.287 0.604 0.656-0.134c0.892-0.18 1.802 0.194 2.308 0.932l0.373 0.55 0.625-0.23c0.251-0.092 0.487-0.137 0.72-0.137 1.151 0 2.089 0.937 2.089 2.089 0 0.632-0.29 1.194-0.737 1.577zM27.425 20.896c0 1.177-0.957 2.136-2.136 2.136h-1.422c-0.304 0-0.593-0.066-0.856-0.181v-6.754c0.262-0.116 0.551-0.181 0.856-0.181h1.422c1.177 0 2.136 0.957 2.136 2.136v2.845z"></path><path d="M6.071 12.496h14.38v16.942h-14.38v-16.942z"></path></svg> 