<?xml version="1.0" encoding="UTF-8"?> <!-- Generated by IcoMoon.io --> <svg xmlns="http://www.w3.org/2000/svg" width="32" height="32" viewBox="0 0 32 32"><title>floating-balloons</title><path d="M10.814 18.030c1.079 3.585 1.342 7.373 1.175 11.098-0.022 0.454 0.597 0.166 0.612-0.164 0.171-3.773-0.086-7.622-1.179-11.254-0.12-0.398-0.7 0.011-0.608 0.32zM20.633 21.265c0.266 0.953 0.078 1.934 0.135 2.907 0.075 1.301 0.872 2.3 1.845 3.095 0.060-0.189 0.123-0.378 0.186-0.566-0.89 0.387-2.32 1.027-2.244 2.218 0.066 1.026 0.849 1.761 0.665 2.854-0.076 0.441 0.557 0.155 0.612-0.163 0.14-0.816-0.129-1.516-0.454-2.25-0.132-0.298-0.273-0.627-0.174-0.953 0.179-0.584 1.21-0.923 1.695-1.136 0.174-0.076 0.378-0.411 0.185-0.566-0.999-0.819-1.682-1.763-1.72-3.084-0.026-0.905 0.127-1.787-0.124-2.675-0.111-0.4-0.691 0.009-0.606 0.319zM20.857 3.305c-3.909 0-7.081 4.030-7.081 9.003 0 4.971 5.282 9.362 7.081 9.362 1.802 0 7.082-4.391 7.082-9.362s-3.17-9.003-7.082-9.003zM22.723 6.037l1.306-0.588c3.999 4.215 0.997 7.45 0.997 7.45 1.373-3.921-2.303-6.861-2.303-6.861zM11.863 17.87h-0.957c0 0-0.162 0.902-0.588 1.176-0.424 0.275 1.213-0.639 1.881-0.025-0.116-0.102-0.527-0.516-0.337-1.151zM12.199 19.021c0.019 0.017 0.031 0.025 0.031 0.025-0.011-0.009-0.022-0.015-0.031-0.025zM21.738 21.056h-0.956c0 0-0.163 0.901-0.587 1.176-0.426 0.275 1.212-0.639 1.879-0.024-0.116-0.105-0.526-0.518-0.337-1.152zM22.074 22.207c0.020 0.015 0.032 0.024 0.032 0.024-0.010-0.009-0.020-0.015-0.032-0.024zM16.95 3.852c-1.281-2.328-3.402-3.852-5.807-3.852-3.911 0-7.081 4.030-7.081 9.002s5.281 9.362 7.081 9.362c0.702 0 1.935-0.67 3.177-1.782-0.836-1.378-1.415-2.955-1.415-4.597 0-3.59 1.654-6.688 4.046-8.133zM8.286 4.635c-0.065 0.068-0.13 0.138-0.194 0.209-0.127 0.142-0.251 0.29-0.37 0.441-0.24 0.303-0.461 0.621-0.663 0.952-0.403 0.662-0.72 1.378-0.893 2.134-0.173 0.754-0.188 1.55-0.002 2.323 0.182 0.773 0.565 1.51 1.071 2.159-0.597-0.565-1.105-1.252-1.425-2.044-0.324-0.79-0.446-1.675-0.381-2.544 0.063-0.871 0.297-1.725 0.632-2.528 0.167-0.403 0.361-0.794 0.577-1.174 0.109-0.19 0.222-0.377 0.342-0.562 0.062-0.093 0.122-0.184 0.187-0.276 0.067-0.093 0.128-0.179 0.211-0.282l1.098 1.006c-0.056 0.049-0.128 0.12-0.189 0.187z"></path></svg> 