<?xml version="1.0" encoding="UTF-8"?> <!-- Generated by IcoMoon.io --> <svg xmlns="http://www.w3.org/2000/svg" width="32" height="32" viewBox="0 0 32 32"><title>floral-design</title><path d="M14.125 20.688c5.639 0 11.288-1.696 16-4.781v1.742c0 4.789-3.939 8.727-8.727 8.727h-0.805c-0.434-2.137-2.32-3.75-4.593-3.75h-2.813v0.938c0 1.538 0.75 2.906 1.894 3.75-1.144 0.844-1.894 2.212-1.894 3.75v0.938h2.813c2.27 0 4.159-1.611 4.593-3.75h0.805c5.826 0 10.602-4.778 10.602-10.602v-4.46h-1.259c-2.53 0-4.995-0.798-7.005-2.256 0.365-0.536 0.701-1.255 0.701-2.432 0-1.256-0.488-2.438-1.369-3.319l-1.988-1.987-0.675 0.675c-1.069 1.069-1.519 2.55-1.312 3.975-1.425-0.206-2.906 0.244-3.975 1.312l-0.675 0.675 1.987 1.988c0.881 0.881 2.063 1.369 3.319 1.369 1.066 0 1.986-0.348 2.714-0.865 1.713 1.285 3.747 2.14 5.849 2.513-4.238 2.57-9.223 3.977-14.188 3.977-4.685 0-8.817-2.661-10.856-6.548 0.972 0.571 2.15 0.923 3.356 0.923h2.813v-0.938c0-2.4-1.294-4.481-3.206-5.625 1.913-1.144 3.206-3.287 3.206-5.688v-0.938h-2.813c-3.617 0-6.625 3.019-6.625 6.625 0 7.755 6.37 14.063 14.125 14.063z"></path><path d="M17.274 6.018c0.135-0.755 0.415-1.474 0.8-2.138-1.215-0.347-2.283-0.302-2.354-0.293l-0.838 0.046-0.046 0.838c-0.004 0.072-0.049 1.136 0.294 2.348 0.663-0.387 1.381-0.667 2.143-0.8z"></path><path d="M9.676 26.687l-0.56 0.625 0.56 0.625c0.049 0.054 0.771 0.839 1.872 1.454 0.198-0.742 0.51-1.45 0.949-2.079-0.439-0.629-0.751-1.336-0.949-2.079-1.101 0.615-1.824 1.399-1.872 1.454z"></path><path d="M10.767 9.264c0.822-0.567 1.714-1.395 2.654-2.639-0.815-1.079-1.698-1.995-2.65-2.653-0.367 0.975-0.908 1.875-1.611 2.653 0.7 0.774 1.241 1.669 1.607 2.639z"></path></svg> 