<?xml version="1.0" encoding="UTF-8"?> <!-- Generated by IcoMoon.io --> <svg xmlns="http://www.w3.org/2000/svg" width="32" height="32" viewBox="0 0 32 32"><title>fountain</title><path d="M27.381 4.572c-1.592-2.714-3.762-4.209-6.111-4.209-1.576 0-3.067 0.665-4.355 1.912v-1.337c0-0.518-0.42-0.938-0.938-0.938s-0.938 0.42-0.938 0.938v1.337c-1.288-1.247-2.779-1.912-4.355-1.912-2.35 0-4.52 1.495-6.111 4.209-1.5 2.557-2.325 5.937-2.325 9.517 0 0.518 0.42 0.938 0.938 0.938s0.938-0.42 0.938-0.938c0-3.252 0.734-6.295 2.068-8.569 1.241-2.117 2.837-3.282 4.494-3.282 0.871 0 1.722 0.317 2.512 0.92 0.812-0.618 1.775-0.956 2.78-0.956s1.968 0.339 2.78 0.956c0.79-0.603 1.642-0.92 2.512-0.92 1.657 0 3.253 1.166 4.494 3.282 1.333 2.274 2.068 5.317 2.068 8.569 0 0.518 0.42 0.938 0.938 0.938s0.938-0.42 0.938-0.938c0-3.58-0.826-6.96-2.325-9.517z"></path><path d="M29.706 20.141v-1.456c0-0.518-0.42-0.938-0.938-0.938s-0.938 0.42-0.938 0.938v1.456z"></path><path d="M4.124 20.141v-1.456c0-0.518-0.42-0.938-0.938-0.938s-0.938 0.42-0.938 0.938v1.456z"></path><path d="M18.215 5.236c-0.586-0.738-1.394-1.16-2.238-1.16s-1.652 0.421-2.238 1.16z"></path><path d="M16.008 13.919c-2.248 0-4.374-0.565-5.987-1.591-1.745-1.11-2.706-2.629-2.706-4.279 0-0.518 0.42-0.938 0.938-0.938h15.51c0.518 0 0.938 0.42 0.938 0.938 0 1.65-0.961 3.169-2.706 4.279-1.613 1.026-3.739 1.591-5.987 1.591z"></path><path d="M12.599 19.442c0 0.24-0.024 0.475-0.067 0.7h6.91c-0.043-0.224-0.067-0.459-0.067-0.7 0-0.898 0.317-1.751 0.829-2.225 0.283-0.262 0.376-0.671 0.236-1.030s-0.487-0.595-0.873-0.595h-7.159c-0.386 0-0.732 0.236-0.873 0.595s-0.047 0.768 0.236 1.030c0.511 0.474 0.829 1.326 0.829 2.225z"></path><path d="M3.004 28.25h25.947c1.915-1.517 2.947-3.348 2.947-5.296 0-0.518-0.42-0.938-0.938-0.938h-29.966c-0.518 0-0.938 0.42-0.938 0.938 0 1.948 1.032 3.779 2.947 5.296z"></path><path d="M31.017 32h-30.080c-0.518 0-0.938-0.42-0.938-0.938s0.42-0.938 0.938-0.938h30.080c0.518 0 0.938 0.42 0.938 0.938s-0.42 0.938-0.938 0.938z"></path></svg> 