<?xml version="1.0" encoding="UTF-8"?> <!-- Generated by IcoMoon.io --> <svg xmlns="http://www.w3.org/2000/svg" width="32" height="32" viewBox="0 0 32 32"><title>fresh-carrot</title><path d="M8.248 10.24c-1.627-0.685-3.329-1.053-5.119-0.915-1.070 0.082-1.077 1.757 0 1.674 1.654-0.127 3.208 0.206 4.703 0.881 0.389-0.692 0.823-1.264 1.179-1.619 0.407-0.407 1-0.891 1.689-1.332-0.057-0.12-0.14-0.233-0.265-0.328-2.724-2.058-4.123-5.123-5.466-8.164-0.435-0.986-1.878-0.133-1.446 0.845 0.657 1.487 1.334 2.929 2.143 4.272-1.005-1.141-1.922-2.362-2.744-3.629-0.584-0.902-2.035-0.064-1.446 0.845 1.836 2.833 4.082 5.422 6.772 7.469z"></path><path d="M8.327 12.073c-0.553 0.972-1.001 2.191-0.969 3.327 0.028 0.978 0.403 1.794 1.113 2.426l0.823 0.598c0.152-1.753 0.626-3.412 1.894-4.855 0.714-0.813 1.893 0.376 1.184 1.184-1.209 1.376-1.464 3.091-1.48 4.832l1.854 1.347c0.225-1.442 0.728-2.805 1.791-4.015 0.714-0.813 1.893 0.376 1.184 1.184-1.002 1.14-1.347 2.514-1.446 3.942l1.977 1.437c0.276-1.146 0.769-2.231 1.633-3.215 0.714-0.813 1.893 0.376 1.184 1.184-0.802 0.913-1.182 1.975-1.354 3.095l9.192 6.681c0.577 0.512 1.189 0.773 1.789 0.773 0.778 0 1.46-0.436 1.782-1.139 0.373-0.815 0.17-1.765-0.557-2.605l-13.345-19.151c-0.549-0.632-1.28-0.964-2.156-0.964-1.294 0-2.651 0.69-3.662 1.38-0.622 0.424-1.113 0.848-1.377 1.112-0.333 0.333-0.714 0.841-1.055 1.441z"></path></svg> 