<?xml version="1.0" encoding="UTF-8"?> <!-- Generated by IcoMoon.io --> <svg xmlns="http://www.w3.org/2000/svg" width="32" height="32" viewBox="0 0 32 32"><title>fresh-soda-glass-with-lemon-slice-and-straw</title><path d="M20.888 1.388v2.731l1.932-1.93c-0.546-0.432-1.207-0.718-1.932-0.801z"></path><path d="M20.018 4.119v-2.731c-0.724 0.083-1.386 0.371-1.93 0.802l1.93 1.929z"></path><path d="M24.236 4.734c-0.083-0.724-0.371-1.386-0.802-1.93l-1.929 1.93h2.731z"></path><path d="M23.433 7.536c0.433-0.543 0.721-1.206 0.802-1.93h-2.731l1.929 1.93z"></path><path d="M20.454 0c-2.706 0-4.926 2.087-5.151 4.734h-1.765l-0.42-2.081c-0.099-0.849-0.741-2.038-2.152-1.917-1.302 0.109-4.456 0.46-4.592 0.475l0.144 1.298c0.033-0.003 3.272-0.364 4.554-0.47 0.605-0.051 0.725 0.587 0.748 0.779l0.385 1.917h-1.184c-0.481 0-0.87 0.39-0.87 0.87v25.524c0 0.481 0.39 0.868 0.87 0.868h8.998c0.481 0 0.868-0.39 0.868-0.868v-20.812c2.65-0.222 4.736-2.445 4.736-5.148 0-2.852-2.319-5.171-5.169-5.171zM20.018 9.448v19.942h-8.998v-23.784h1.363l0.839 4.163h-1.616v18.981h7.826v-18.981h-4.88l-0.837-4.163h6.305l-0.002 3.842zM20.888 9.448v-0.495c0.724-0.083 1.386-0.371 1.932-0.802l-1.932-1.93v-0.615c0-0.481-0.389-0.87-0.868-0.87h-0.617l-1.93-1.93c-0.432 0.543-0.72 1.204-0.799 1.929h-0.496c0.218-2.17 2.049-3.864 4.279-3.864 2.375 0 4.297 1.925 4.297 4.299-0.002 2.228-1.695 4.061-3.866 4.279z"></path></svg> 