<?xml version="1.0" encoding="UTF-8"?> <!-- Generated by IcoMoon.io --> <svg xmlns="http://www.w3.org/2000/svg" width="32" height="32" viewBox="0 0 32 32"><title>glass-with-beverage-ice-cubes-and-straw</title><path d="M15.341 6.563c-0.276-1.561-0.58-3.043-0.898-4.226-0.422-1.563-1.295-2.093-1.955-2.262-2.427-0.613-5.717 2.71-6.083 3.092l1.059 1.017c0.976-1.017 3.399-3.004 4.66-2.687 0.152 0.039 0.615 0.157 0.902 1.223 0.288 1.069 0.565 2.413 0.822 3.843h-1.319l1.538 25.006h0.807v0.431h8.397v-0.432h0.807l1.517-25.005h-10.253zM13.829 12.922l-0.336-5.451h0.512c0.317 1.873 0.594 3.821 0.81 5.451h-0.986zM14.767 17.986c-0.183-0.368-0.032-0.813 0.336-0.996l2.165-1.075c0.367-0.184 0.814-0.032 0.998 0.335l1.076 2.168c0.182 0.368 0.029 0.813-0.336 0.995l-2.168 1.077c-0.365 0.181-0.813 0.031-0.995-0.337l-1.077-2.167zM19.419 17.831l-0.892-1.796c-0.11-0.223-0.308-0.379-0.531-0.468l0.093-1.165c0.034-0.431 0.409-0.749 0.836-0.717l0.010 0.001c0.002 0 0.004-0.001 0.006-0.001l2.527 0.2c0.429 0.034 0.748 0.409 0.715 0.838l-0.199 2.528c-0.034 0.429-0.409 0.747-0.837 0.714l-0.009-0.001c-0.002 0-0.004 0.001-0.006 0.001l-1.713-0.134zM20.119 23.076c0.001 0.41-0.331 0.744-0.741 0.745l-2.424 0.009c-0.41 0.001-0.746-0.331-0.747-0.742l-0.007-2.209c0.092 0.027 0.188 0.043 0.288 0.043 0.155 0 0.304-0.034 0.442-0.103l1.826-0.905 0.608-0.002c0.411-0.001 0.745 0.33 0.746 0.742l0.008 2.423zM20.267 28.568l-1.998 1.373c-0.338 0.231-0.801 0.146-1.033-0.191l-1.374-1.997c-0.233-0.339-0.147-0.802 0.191-1.035l1.998-1.371c0.006-0.006 0.016-0.006 0.023-0.011l0.001 0.419c0.001 0.635 0.52 1.15 1.152 1.15l0.797-0.003 0.435 0.631c0.234 0.339 0.148 0.803-0.19 1.035zM21.652 26.487l-2.423 0.009c0 0-0.001 0-0.002 0-0.057 0-0.108-0.020-0.162-0.032-0.042-0.010-0.087-0.009-0.126-0.025-0.041-0.018-0.072-0.048-0.108-0.071-0.044-0.028-0.093-0.051-0.129-0.087-0.022-0.022-0.031-0.050-0.050-0.073-0.041-0.052-0.084-0.102-0.11-0.163-0.037-0.089-0.059-0.186-0.059-0.289l-0.002-0.525-0.003-0.994 0.901-0.004c0.308-0.001 0.596-0.121 0.814-0.339 0.217-0.22 0.336-0.509 0.335-0.815l-0.001-0.495 1.112-0.003c0.412-0.002 0.746 0.329 0.746 0.741l0.008 2.424c0.002 0.408-0.33 0.742-0.741 0.743zM16.299 12.922c-0.21-1.609-0.484-3.554-0.802-5.451h9.135l-0.33 5.451h-8.002z"></path></svg> 