<?xml version="1.0" encoding="UTF-8"?> <!-- Generated by IcoMoon.io --> <svg xmlns="http://www.w3.org/2000/svg" width="32" height="32" viewBox="0 0 32 32"><title>glass-with-wine</title><path d="M22 30h-5v-10.096c2.184-0.223 4.229-1.119 5.826-2.662 3.77-3.644 4.023-12.969 0.461-16.912l-0.299-0.33h-13.979l-0.298 0.33c-3.562 3.943-3.306 13.27 0.464 16.912 1.596 1.543 3.641 2.439 5.824 2.662v10.096h-5c-0.553 0-1 0.447-1 1s0.447 1 1 1h12c0.553 0 1-0.447 1-1s-0.447-1-1-1zM9.922 2h12.153c2.566 3.36 2.275 10.987-0.641 13.804-2.928 2.829-7.94 2.833-10.869 0.001-2.916-2.817-3.21-10.444-0.644-13.805zM11.261 15.086c-1.457-1.408-2.162-4.302-2.082-7.086h13.641c0.082 2.785-0.623 5.678-2.080 7.085-2.42 2.341-7.058 2.341-9.479 0.001z"></path></svg> 