<?xml version="1.0" encoding="UTF-8"?> <!-- Generated by IcoMoon.io --> <svg xmlns="http://www.w3.org/2000/svg" width="32" height="32" viewBox="0 0 32 32"><title>glass-and-bottle-of-wine</title><path d="M15.362 16.138c0-1.319-0.325-2.594-0.95-3.689l-0.148-0.259h-9.268l-0.145 0.259c-0.623 1.093-0.95 2.37-0.95 3.689 0 3.363 2.14 6.15 4.918 6.611v7.854c-1.602 0.065-2.796 0.308-2.796 0.597 0 0.342 1.627 0.617 3.635 0.617 2.009 0 3.639-0.274 3.639-0.617 0-0.288-1.194-0.532-2.796-0.597v-7.86c2.75-0.49 4.861-3.266 4.861-6.605zM9.63 21.791c-2.594 0-4.706-2.535-4.706-5.656 0-1.039 0.233-2.043 0.679-2.924h8.057c0.444 0.881 0.68 1.886 0.68 2.924 0.002 3.123-2.114 5.656-4.71 5.656zM25.175 3.534h-4.076v-3.534h4.076v3.534zM25.175 7.914v-3.292h-4.076v3.294c-1.721 0.776-2.924 2.506-2.924 4.52v19.565h9.922v-19.565c0.002-2.014-1.198-3.744-2.922-4.521zM27.221 27.011h-8.082v-9.697h8.082v9.697zM13.913 16.244c0 0-0.214 5.127-4.213 5.127s-4.538-5.127-4.538-5.127h8.751z"></path></svg> 