<?xml version="1.0" encoding="UTF-8"?> <!-- Generated by IcoMoon.io --> <svg xmlns="http://www.w3.org/2000/svg" width="32" height="32" viewBox="0 0 32 32"><title>hookah-1</title><path d="M25.299 0h-8.343c-0.525 0-0.951 0.426-0.951 0.951v0.66c0 1.437 0.95 2.656 2.255 3.062v1.422c0 1.248 0.801 2.311 1.916 2.704v0.894c0.31-0.046 0.628-0.071 0.951-0.071s0.64 0.024 0.951 0.071v-0.894c1.115-0.393 1.916-1.457 1.916-2.704v-1.422c1.305-0.406 2.255-1.625 2.255-3.062v-0.66c0-0.525-0.426-0.951-0.951-0.951z"></path><path d="M12.127 11.17l-0.011 0.011c-0.782 0.782-1.182 1.863-1.097 2.967 0.101 1.319 0.24 3.907 0.040 6.413-0.281 3.522-1.067 5.046-1.678 5.705-0.396 0.427-0.832 0.626-1.374 0.626-0.566 0-2.287 0-2.473-4.484-0.059-1.415 0.072-2.869 0.388-4.323l1.054-4.852 0.33 0.072c0.068 0.015 0.136 0.022 0.203 0.022 0.438 0 0.832-0.304 0.928-0.749 0.111-0.513-0.214-1.020-0.727-1.131l-0.33-0.072 1.689-7.777c0.111-0.513-0.214-1.019-0.727-1.131s-1.020 0.214-1.131 0.727l-1.689 7.777-0.353-0.077c-0.513-0.111-1.019 0.214-1.131 0.727s0.214 1.020 0.727 1.131l0.353 0.077-1.054 4.852c-0.35 1.612-0.495 3.229-0.429 4.805 0.077 1.855 0.402 3.263 0.993 4.305 0.743 1.309 1.912 2.002 3.38 2.002 1.078 0 2.009-0.416 2.769-1.235 2.552-2.754 2.435-9.675 2.138-13.555-0.042-0.55 0.157-1.089 0.546-1.478l0.011-0.011c0.661-0.661 1.695-0.727 2.431-0.197 0.373-0.521 0.821-0.984 1.329-1.373-1.485-1.245-3.709-1.17-5.104 0.226z"></path><path d="M26.446 22.921c0.317-0.636 0.481-1.325 0.481-2.030 0-1.28-0.543-2.494-1.512-3.423 0.152-0.458 0.231-0.94 0.231-1.426 0-2.491-2.027-4.518-4.518-4.518s-4.518 2.027-4.518 4.518c0 0.485 0.079 0.968 0.231 1.426-0.969 0.929-1.512 2.143-1.512 3.423 0 0.705 0.165 1.394 0.482 2.030-1.239 1.161-1.934 2.687-1.934 4.296 0 1.74 0.794 3.36 2.235 4.562 0.171 0.142 0.386 0.221 0.609 0.221h8.816c0.223 0 0.438-0.078 0.609-0.221 1.441-1.202 2.235-2.822 2.235-4.562-0-1.609-0.696-3.135-1.934-4.296z"></path></svg> 