<?xml version="1.0" encoding="UTF-8"?> <!-- Generated by IcoMoon.io --> <svg xmlns="http://www.w3.org/2000/svg" width="32" height="32" viewBox="0 0 32 32"><title>hookah</title><path d="M17.242 22.668h-9.805c-1.023 1.056-1.964 2.462-1.964 4.063 0 3.397 2.453 5.047 2.557 5.115l0.234 0.154h8.15l0.234-0.154c0.104-0.069 2.557-1.718 2.557-5.115 0-1.601-0.941-3.007-1.964-4.063z"></path><path d="M25.881 12.102v-2.223h-1.875v2.223h-0.646v1.875h0.646v0.169c0 0.816-0.664 1.479-1.479 1.479s-1.479-0.664-1.479-1.479v-5.063c0-1.447-1.178-2.625-2.625-2.625h-2.165l-2.189 3.009c-0.242-0.162-0.508-0.291-0.792-0.381v-3.246h2.027v-1.875h-2.027v-2.091h0.917v-1.875h-3.708v1.875h0.917v2.091h-2.028v1.875h2.028v3.246c-1.261 0.399-2.178 1.58-2.178 2.971s0.917 2.572 2.178 2.971v1.291c-1.261 0.399-2.178 1.58-2.178 2.971 0 0.545 0.142 1.057 0.389 1.503h5.453c0.247-0.446 0.389-0.958 0.389-1.503 0-1.391-0.917-2.572-2.178-2.971v-1.291c1.261-0.399 2.178-1.58 2.178-2.971 0-0.37-0.065-0.725-0.184-1.054l1.942-2.669h1.21c0.414 0 0.75 0.336 0.75 0.75v5.063c0 1.85 1.505 3.354 3.354 3.354s3.354-1.505 3.354-3.354v-0.169h0.646v-1.875h-0.646z"></path></svg> 