<?xml version="1.0" encoding="UTF-8"?> <!-- Generated by IcoMoon.io --> <svg xmlns="http://www.w3.org/2000/svg" width="32" height="32" viewBox="0 0 32 32"><title>hot-cup-of-coffee</title><path d="M23.54 13.649v-2.247c0-0.812-0.659-1.471-1.471-1.471h-3.822c0.773-1.007 1.091-1.981 0.946-2.948-0.181-1.2-1.028-2.148-1.776-2.987-1.070-1.199-1.65-1.925-1.132-2.921 0.166-0.321 0.075-0.716-0.216-0.931-0.289-0.215-0.694-0.187-0.952 0.067-3.438 3.376-1.615 5.587-0.283 7.202 0.851 1.033 1.364 1.718 1.195 2.519h-4.4c0.773-1.007 1.091-1.981 0.946-2.948-0.18-1.2-1.028-2.148-1.776-2.987-1.070-1.199-1.651-1.925-1.133-2.921 0.167-0.321 0.076-0.716-0.215-0.931s-0.695-0.187-0.953 0.067c-3.438 3.376-1.614 5.587-0.283 7.202 0.851 1.033 1.363 1.718 1.194 2.519h-5.73c-0.812 0-1.471 0.659-1.471 1.471v15.448c0 2.839 2.311 5.149 5.149 5.149h11.035c2.6 0 4.752-1.94 5.096-4.448 3.533-0.345 6.307-3.331 6.307-6.954 0.001-3.604-2.744-6.579-6.253-6.948zM8.828 26.115c0 0.812-0.659 1.471-1.471 1.471s-1.471-0.66-1.471-1.471v-11.035c0-0.812 0.659-1.471 1.471-1.471s1.471 0.659 1.471 1.471v11.035zM23.54 24.574v-7.951c1.881 0.348 3.31 1.997 3.31 3.976s-1.43 3.628-3.31 3.976z"></path></svg> 