<?xml version="1.0" encoding="UTF-8"?> <!-- Generated by IcoMoon.io --> <svg xmlns="http://www.w3.org/2000/svg" width="32" height="32" viewBox="0 0 32 32"><title>icon-1</title><path d="M24.318 11.522h-6.835c0.618 0 1.12-0.502 1.12-1.121s-0.503-1.117-1.12-1.117h-2.795c-0.618 0-1.119 0.499-1.119 1.117s0.502 1.121 1.119 1.121h-6.836c-1.902 0-3.477 1.705-3.783 3.519h24.034c-0.308-1.815-1.883-3.519-3.785-3.519z"></path><path d="M28.158 16.962v-0.32h-28.158v1.6h4.011v9.916c0 2.123 1.72 3.841 3.84 3.841h16.467c2.122 0 3.841-1.717 3.841-3.841v-9.596h3.841v-1.6h-3.842z"></path><path d="M10.208 3.846c0.112 0.147 0.231 0.289 0.355 0.422l0.31 0.311c0.196 0.197 0.379 0.394 0.524 0.571 0.073 0.089 0.133 0.173 0.177 0.243 0.043 0.069 0.082 0.123 0.091 0.203 0.011 0.085-0.034 0.201-0.121 0.316-0.087 0.114-0.209 0.223-0.351 0.333 0.169 0.065 0.353 0.087 0.549 0.064s0.41-0.11 0.588-0.296c0.177-0.186 0.276-0.461 0.292-0.704 0.017-0.245-0.020-0.467-0.075-0.667-0.112-0.398-0.297-0.72-0.495-1.016-0.099-0.145-0.222-0.292-0.309-0.406-0.087-0.103-0.168-0.208-0.242-0.312-0.3-0.417-0.509-0.793-0.588-1.234-0.082-0.447 0.009-1.018 0.279-1.673-0.7 0.147-1.323 0.733-1.527 1.552-0.101 0.404-0.079 0.848 0.029 1.238 0.107 0.398 0.297 0.748 0.513 1.055z"></path><path d="M14.358 3.846c0.112 0.147 0.232 0.289 0.355 0.422l0.309 0.311c0.196 0.197 0.378 0.394 0.527 0.571 0.070 0.089 0.13 0.173 0.175 0.243s0.082 0.123 0.089 0.203c0.012 0.085-0.032 0.201-0.119 0.316-0.086 0.114-0.209 0.223-0.353 0.333 0.171 0.065 0.356 0.087 0.551 0.064s0.411-0.11 0.588-0.296c0.179-0.186 0.276-0.461 0.292-0.704 0.017-0.245-0.019-0.467-0.074-0.667-0.114-0.398-0.3-0.72-0.498-1.016-0.097-0.145-0.221-0.292-0.308-0.406-0.085-0.103-0.168-0.208-0.24-0.312-0.301-0.417-0.511-0.793-0.589-1.234-0.082-0.445 0.007-1.016 0.276-1.671-0.699 0.147-1.321 0.733-1.524 1.552-0.101 0.404-0.080 0.848 0.028 1.238 0.109 0.396 0.295 0.747 0.514 1.054z"></path><path d="M18.138 3.846c0.111 0.147 0.23 0.289 0.354 0.422l0.31 0.311c0.196 0.197 0.377 0.394 0.524 0.571 0.073 0.089 0.133 0.173 0.177 0.243 0.043 0.069 0.080 0.123 0.091 0.203 0.012 0.085-0.034 0.201-0.121 0.316-0.086 0.114-0.209 0.223-0.353 0.333 0.171 0.065 0.356 0.087 0.549 0.064 0.195-0.023 0.411-0.11 0.59-0.296 0.177-0.186 0.275-0.461 0.291-0.704 0.018-0.245-0.019-0.467-0.074-0.667-0.112-0.398-0.296-0.72-0.495-1.016-0.099-0.145-0.222-0.292-0.309-0.406-0.087-0.103-0.169-0.208-0.242-0.312-0.3-0.417-0.509-0.793-0.587-1.234-0.083-0.447 0.008-1.018 0.276-1.673-0.699 0.147-1.323 0.733-1.525 1.552-0.1 0.404-0.079 0.848 0.029 1.238 0.107 0.398 0.295 0.748 0.514 1.055z"></path></svg> 