<?xml version="1.0" encoding="UTF-8"?> <!-- Generated by IcoMoon.io --> <svg xmlns="http://www.w3.org/2000/svg" width="32" height="32" viewBox="0 0 32 32"><title>icon</title><path d="M19.389 6.838c0.026-0.13 0.047-0.26 0.047-0.396 0-1.338-1.275-2.423-2.85-2.423-1.573 0-2.849 1.085-2.849 2.423 0 0.137 0.023 0.266 0.048 0.396-1.985 0.564-3.719 1.718-5.015 3.25h15.634c-1.298-1.532-3.030-2.684-5.015-3.25z"></path><path d="M29.534 11.332c-1.461-0.727-3.195-0.49-4.671 0.46h-16.584c-1.068 1.483-1.75 3.262-1.895 5.192-0.18-0.464-0.263-1.045-0.22-1.779 0.121-2.039-0.408-3.62-1.577-4.705-1.793-1.665-4.309-1.388-4.588-1.35 0 0 0.938 1.4 0.36 2.712 0 0 1.504-0.157 2.364 0.642 0.54 0.502 0.777 1.355 0.708 2.539-0.123 2.068 0.41 3.653 1.587 4.711 0.557 0.502 1.182 0.806 1.782 0.992 1.281 4.19 5.176 7.237 9.783 7.237 3.885 0 7.263-2.165 8.997-5.353 2.127 0.18 4.442-1.232 5.652-3.655 1.497-3.001 0.732-6.429-1.699-7.642zM28.785 17.754c-0.498 1-1.334 1.692-2.149 1.907 0.116-0.62 0.183-1.258 0.183-1.911 0-1.227-0.225-2.399-0.623-3.487 0.677-0.443 1.421-0.587 2.020-0.289 1.064 0.531 1.327 2.262 0.569 3.78z"></path></svg> 