<?xml version="1.0" encoding="UTF-8"?> <!-- Generated by IcoMoon.io --> <svg xmlns="http://www.w3.org/2000/svg" width="32" height="32" viewBox="0 0 32 32"><title>instagram</title><path d="M22.705 0h-13.409c-5.126 0-9.296 4.17-9.296 9.296v13.409c0 5.126 4.17 9.295 9.296 9.295h13.409c5.126 0 9.295-4.17 9.295-9.295v-13.409c0-5.126-4.17-9.296-9.295-9.296zM29.5 22.704c0 3.747-3.048 6.796-6.795 6.796h-13.409c-3.747 0-6.795-3.048-6.795-6.795v-13.409c0-3.747 3.048-6.795 6.795-6.795h13.409c3.747 0 6.796 3.048 6.796 6.795v13.409z"></path><path d="M16 7.375c-4.756 0-8.625 3.869-8.625 8.625s3.869 8.625 8.625 8.625 8.625-3.869 8.625-8.625-3.869-8.625-8.625-8.625zM16 22.125c-3.377 0-6.125-2.748-6.125-6.125s2.748-6.125 6.125-6.125 6.125 2.748 6.125 6.125-2.748 6.125-6.125 6.125z"></path><path d="M26 7.25c0 0.69-0.56 1.25-1.25 1.25s-1.25-0.56-1.25-1.25c0-0.69 0.56-1.25 1.25-1.25s1.25 0.56 1.25 1.25z"></path></svg> 