<?xml version="1.0" encoding="UTF-8"?> <!-- Generated by IcoMoon.io --> <svg xmlns="http://www.w3.org/2000/svg" width="32" height="32" viewBox="0 0 32 32"><title>kid-teddy-bear</title><path d="M17.015 10.827c0 0.611-0.495 1.105-1.105 1.105s-1.105-0.495-1.105-1.105c0-0.611 0.495-1.105 1.105-1.105s1.105 0.495 1.105 1.105z"></path><path d="M24.443 25.32c-0.532-0.286-0.45-0.801-0.45-1.123v-4.51c1.557-0.318 4.982-0.347 4.982-3.424 0-1.52-1.24-2.077-2.753-1.923-1.206 0.123-1.774 0.928-3.817 0.159-0.259-0.097-0.982-0.735-0.568-1.239 1.058-1.29 1.654-2.971 1.654-4.781 0-0.296-0.003-0.889 0.263-1 1.361-0.568 2.281-1.978 2.281-3.571 0-2.158-1.718-3.907-3.837-3.907-1.149 0-2.18 0.514-2.883 1.329-0.062 0.071-0.172 0.22-0.441 0.103-0.955-0.449-1.753-0.582-2.874-0.582-1.204 0-2.078 0.162-3.086 0.676-0.318 0.097-0.534-0.23-0.691-0.389-0.694-0.702-1.649-1.137-2.704-1.137-2.119 0-3.838 1.749-3.838 3.907 0 1.657 1.013 3.072 2.442 3.641 0.138 0.055 0.352 0.221 0.386 0.93 0.086 1.795 0.611 3.449 1.632 4.752 0.379 0.483 0.014 1.107-0.556 1.283-2.079 0.643-2.604-0.050-3.806-0.174-1.513-0.156-2.753 0.403-2.753 1.923 0 2.994 3.425 3.101 4.982 3.414v4.52c0 0.332 0.046 0.796-0.645 1.224-1.931 0.796-4.704 0.857-4.704 3.56 0 1.645 1.364 3.295 2.978 2.978 2.022-0.397 3.083-1.068 6.151-2.457 0.661-0.301 1.127-0.15 1.417-0.109 0.87 0.122 1.812 0.17 2.796 0.17 1.099 0 2.146-0.059 3.098-0.216 0.24-0.040 0.803-0.062 1.319 0.148 2.994 1.394 3.955 2.064 5.947 2.465 1.612 0.325 2.978-1.333 2.978-2.978 0-2.703-2.971-2.854-4.899-3.66zM19.626 11.933c0 1.61-1.664 2.916-3.716 2.916s-3.716-1.306-3.716-2.916c0-1.61 1.664-2.916 3.716-2.916s3.716 1.305 3.716 2.916zM10.562 7.124c0-0.733 0.594-1.327 1.327-1.327s1.327 0.594 1.327 1.327-0.594 1.327-1.327 1.327c-0.733-0-1.327-0.594-1.327-1.327zM20.489 23.536c0 2.479-2.010 3.593-4.489 3.593s-4.489-1.113-4.489-3.593v-2.111c0-2.479 2.010-4.489 4.489-4.489s4.489 2.010 4.489 4.489v2.111zM19.461 8.45c-0.733 0-1.327-0.594-1.327-1.327s0.594-1.327 1.327-1.327 1.327 0.594 1.327 1.327-0.594 1.327-1.327 1.327z"></path></svg> 