<?xml version="1.0" encoding="UTF-8"?> <!-- Generated by IcoMoon.io --> <svg xmlns="http://www.w3.org/2000/svg" width="32" height="32" viewBox="0 0 32 32"><title>ladle</title><path d="M18.326 25.412l6.345-21.5c0.177-0.598 0.575-1.091 1.123-1.389s1.178-0.365 1.776-0.188c0.598 0.177 1.091 0.575 1.389 1.123s0.365 1.178 0.188 1.776c-0.175 0.592 0.164 1.214 0.756 1.389s1.214-0.164 1.389-0.756c0.346-1.171 0.215-2.406-0.369-3.478s-1.55-1.853-2.721-2.198c-1.17-0.345-2.406-0.215-3.478 0.369s-1.853 1.55-2.199 2.721l-6.051 20.506-14.196-4.19c-0.284-0.084-0.59-0.052-0.851 0.090s-0.454 0.381-0.538 0.666c-1.417 4.801 1.336 9.859 6.137 11.276 0.839 0.248 1.705 0.373 2.573 0.373 1.919 0 3.831-0.63 5.384-1.773 1.606-1.182 2.776-2.898 3.342-4.815zM9.6 29.763c-0.653 0-1.306-0.095-1.94-0.282-3.253-0.96-5.258-4.139-4.854-7.4l12.946 3.821c-1.13 2.319-3.521 3.861-6.152 3.861z"></path></svg> 