<?xml version="1.0" encoding="UTF-8"?> <!-- Generated by IcoMoon.io --> <svg xmlns="http://www.w3.org/2000/svg" width="32" height="32" viewBox="0 0 32 32"><title>lemon-slice</title><path d="M22.305 4.204l-7.941 7.941 11.077-0.536c-0.224-2.702-1.3-5.311-3.136-7.405z"></path><path d="M23.387 19.69c1.342-2.048 2.022-4.338 2.093-6.619l-11.396 0.551 7.431 8.32c0.694-0.663 1.324-1.415 1.872-2.253z"></path><path d="M20.4 22.89l-7.407-8.294-1.758 10.815c3.241 0.359 6.538-0.532 9.165-2.521z"></path><path d="M9.793 25.168l1.64-10.091-7.232 7.232c0.443 0.388 0.918 0.75 1.425 1.082 1.312 0.86 2.723 1.447 4.167 1.777z"></path><path d="M26.51 0l-2.979 2.978c5.666 5.666 5.666 14.886 0 20.553s-14.886 5.667-20.553 0l-2.978 2.978c3.54 3.541 8.248 5.49 13.255 5.49s9.714-1.95 13.255-5.49c3.54-3.54 5.49-8.248 5.49-13.255s-1.95-9.714-5.49-13.255z"></path></svg> 