<?xml version="1.0" encoding="UTF-8"?> <!-- Generated by IcoMoon.io --> <svg xmlns="http://www.w3.org/2000/svg" width="32" height="32" viewBox="0 0 32 32"><title>livingroom-black-double-sofa</title><path d="M1.103 24h2.207c0.61 0 1.103-0.494 1.103-1.103h23.172c0 0.61 0.494 1.103 1.103 1.103h2.207c0.61 0 1.103-0.494 1.103-1.103v-9.379c0-0.61-0.494-1.103-1.103-1.103h-2.207c-0.61 0-1.103 0.494-1.103 1.103v6.069h-23.172v-6.069c0-0.61-0.494-1.103-1.103-1.103h-2.207c-0.61 0-1.103 0.494-1.103 1.103v9.379c0 0.61 0.494 1.104 1.103 1.104z"></path><path d="M14.356 14.069c0.399 0 0.769 0.116 1.092 0.304v-5.269c0-0.61-0.494-1.103-1.103-1.103h-7.724c-0.61 0-1.103 0.494-1.103 1.103v5.279c0.332-0.194 0.714-0.313 1.127-0.313h7.713z"></path><path d="M15.448 16.276c0-0.61-0.488-1.103-1.098-1.103h-7.706c-0.61 0-1.127 0.494-1.127 1.103v2.207h9.931v-2.207z"></path><path d="M25.391 14.069c0.399 0 0.769 0.116 1.092 0.304v-5.269c0-0.61-0.494-1.103-1.103-1.103h-7.724c-0.61 0-1.103 0.494-1.103 1.103v5.279c0.332-0.194 0.714-0.313 1.127-0.313h7.713z"></path><path d="M26.483 16.276c0-0.61-0.488-1.103-1.098-1.103h-7.707c-0.61 0-1.127 0.494-1.127 1.103v2.207h9.931v-2.207z"></path></svg> 