<?xml version="1.0" encoding="UTF-8"?> <!-- Generated by IcoMoon.io --> <svg xmlns="http://www.w3.org/2000/svg" width="32" height="32" viewBox="0 0 32 32"><title>martini-glass-with-straw</title><path d="M29.057 4.358c-0.086-0.248-0.319-0.415-0.582-0.415h-5.712l1.721-3.022c0.168-0.295 0.065-0.671-0.23-0.839s-0.671-0.065-0.839 0.23l-2.068 3.631h-17.823c-0.263 0-0.497 0.167-0.582 0.415s-0.003 0.524 0.204 0.685l12.238 9.534v13.876l-6.745 2.351c-0.283 0.099-0.454 0.388-0.404 0.684s0.307 0.512 0.607 0.512h14.316c0.001 0 0.002 0 0.003 0 0.34 0 0.615-0.275 0.615-0.615 0-0.282-0.19-0.52-0.449-0.593l-6.712-2.339v-13.876l12.238-9.534c0.207-0.162 0.289-0.437 0.204-0.685zM7.844 7.143l-2.529-1.97h15.331l-1.122 1.97h-11.68zM24.156 7.143h-3.215l1.122-1.97h4.622l-2.529 1.97z"></path></svg> 