<?xml version="1.0" encoding="UTF-8"?> <!-- Generated by IcoMoon.io --> <svg xmlns="http://www.w3.org/2000/svg" width="32" height="32" viewBox="0 0 32 32"><title>milkshake</title><path d="M24.348 10.729c-0.304-2.42-1.632-4.509-3.527-5.835l0.145-1.144h3.409c0.345 0 0.625-0.28 0.625-0.625v-2.5c0-0.345-0.28-0.625-0.625-0.625h-4.397c-1.322 0-2.444 0.989-2.609 2.3l-0.147 1.163c-0.399-0.058-0.807-0.088-1.222-0.088-4.265 0-7.824 3.186-8.348 7.354-0.715 0.064-1.277 0.667-1.277 1.398v1.96c0 0.345 0.28 0.625 0.625 0.625h0.684l2.214 16.745c0.041 0.311 0.306 0.543 0.62 0.543h10.986c0.313 0 0.578-0.232 0.62-0.543l2.214-16.745h0.663c0.345 0 0.625-0.28 0.625-0.625v-1.96c0-0.732-0.562-1.334-1.277-1.398zM23.085 10.723h-3.001l0.555-4.393c1.287 1.094 2.184 2.636 2.446 4.393zM18.288 4.999c0.416 0.14 0.815 0.317 1.193 0.528l-0.657 5.196h-1.26zM18.609 2.457c0.087-0.688 0.676-1.207 1.369-1.207h3.772v1.25h-3.335c-0.315 0-0.581 0.234-0.62 0.547l-0.146 1.159c-0.385-0.186-0.786-0.343-1.201-0.469zM16 4.625c0.362 0 0.717 0.027 1.065 0.079l-0.761 6.019h-1.075c-0.345 0-0.625 0.28-0.625 0.625s0.28 0.625 0.625 0.625h8.992c0.085 0 0.154 0.069 0.154 0.154v1.335h-16.75v-1.335c0-0.085 0.069-0.154 0.154-0.154h2.45c0.345 0 0.625-0.28 0.625-0.625s-0.28-0.625-0.625-0.625h-1.314c0.517-3.469 3.51-6.098 7.085-6.098zM17.797 18.848c-0.421-0.188-0.814-0.44-1.164-0.755l0.427-3.381h1.26zM16.451 19.531c0.371 0.248 0.768 0.448 1.184 0.601l-0.926 7.326-1.24-0.157zM15.8 14.712l-0.308 2.438c-0.913-0.587-1.976-0.903-3.088-0.903-1.13 0-2.21 0.326-3.134 0.932l-0.326-2.467zM20.956 30.75h-9.89l-1.606-12.146c0.816-0.715 1.85-1.107 2.945-1.107 1.078 0 2.098 0.38 2.908 1.075l-1.162 9.193c-0.043 0.343 0.199 0.655 0.542 0.698l2.48 0.313c0.026 0.003 0.052 0.005 0.078 0.005 0.138 0 0.273-0.046 0.383-0.131 0.131-0.102 0.216-0.251 0.237-0.416l0.986-7.802c0.25 0.033 0.504 0.051 0.76 0.051 0.994 0 1.948-0.253 2.792-0.726zM22.633 18.065c-0.826 0.755-1.889 1.169-3.016 1.169-0.204 0-0.405-0.015-0.604-0.041l0.566-4.481h3.497z"></path><path d="M12.729 11.973c0.164 0 0.325-0.067 0.442-0.183s0.183-0.278 0.183-0.442-0.067-0.326-0.183-0.442c-0.116-0.117-0.277-0.183-0.442-0.183s-0.326 0.066-0.443 0.183c-0.116 0.116-0.182 0.278-0.182 0.442s0.066 0.326 0.182 0.442c0.117 0.116 0.278 0.183 0.443 0.183z"></path></svg> 