<?xml version="1.0" encoding="UTF-8"?> <!-- Generated by IcoMoon.io --> <svg xmlns="http://www.w3.org/2000/svg" width="32" height="32" viewBox="0 0 32 32"><title>molecular-configuration</title><path d="M23.393 18.93l-3.425-2.222c0.44-1.253 0.34-2.653-0.297-3.841l2.809-2.51c1.543 0.963 3.6 0.775 4.942-0.567 1.562-1.562 1.562-4.094 0-5.655s-4.094-1.562-5.656 0c-1.23 1.23-1.491 3.062-0.783 4.548l-2.81 2.51c-1.345-0.931-3.061-1.094-4.535-0.486l-3.24-4.459c1.162-1.526 1.048-3.714-0.346-5.108-1.52-1.52-3.985-1.52-5.506 0s-1.52 3.985 0 5.506c1.092 1.092 2.67 1.399 4.036 0.924l3.24 4.459c-1.6 1.877-1.515 4.698 0.259 6.473 0.034 0.034 0.069 0.066 0.104 0.099l-3.139 5.51c-1.305-0.309-2.734 0.045-3.752 1.063-1.562 1.562-1.562 4.094 0 5.656s4.094 1.562 5.655 0c1.545-1.545 1.561-4.040 0.047-5.606l3.139-5.509c1.576 0.453 3.339 0.078 4.606-1.123l3.428 2.223c-0.219 1.017 0.066 2.12 0.856 2.91 1.238 1.238 3.244 1.238 4.481 0s1.237-3.243 0-4.481c-1.122-1.122-2.876-1.226-4.116-0.314zM6.65 27.113c-0.076 0.086-0.148 0.168-0.218 0.238-0.088 0.087-0.207 0.194-0.356 0.24-0.186 0.058-0.377 0.007-0.523-0.139-0.382-0.382-0.236-1.104 0.34-1.679s1.298-0.722 1.679-0.34c0.146 0.146 0.197 0.336 0.139 0.523-0.046 0.148-0.152 0.268-0.24 0.356-0.070 0.070-0.152 0.142-0.238 0.218-0.1 0.088-0.203 0.178-0.304 0.28s-0.192 0.205-0.28 0.304zM22.365 4.734c0.575-0.575 1.298-0.722 1.679-0.34 0.146 0.146 0.197 0.336 0.139 0.523-0.046 0.148-0.152 0.268-0.24 0.356-0.070 0.070-0.152 0.142-0.238 0.218-0.1 0.088-0.203 0.178-0.304 0.28s-0.192 0.205-0.28 0.305c-0.076 0.086-0.148 0.168-0.218 0.238-0.087 0.087-0.207 0.194-0.356 0.24-0.187 0.058-0.377 0.007-0.523-0.139-0.382-0.382-0.236-1.104 0.34-1.68zM5.866 3.028c-0.074 0.084-0.144 0.163-0.212 0.232-0.085 0.085-0.202 0.189-0.346 0.234-0.182 0.056-0.367 0.007-0.509-0.135-0.372-0.372-0.229-1.075 0.331-1.635s1.263-0.703 1.635-0.331c0.142 0.142 0.192 0.328 0.135 0.509-0.045 0.145-0.148 0.261-0.233 0.346-0.068 0.068-0.148 0.138-0.232 0.212-0.097 0.085-0.198 0.174-0.296 0.272s-0.187 0.2-0.273 0.297zM12.797 12.461c0.687-0.688 1.55-0.862 2.006-0.406 0.174 0.174 0.235 0.402 0.166 0.625-0.055 0.177-0.182 0.32-0.287 0.425-0.084 0.084-0.181 0.169-0.284 0.26-0.119 0.105-0.242 0.213-0.364 0.334s-0.23 0.245-0.334 0.364c-0.091 0.103-0.176 0.2-0.26 0.284-0.104 0.105-0.247 0.232-0.425 0.287-0.223 0.069-0.45 0.008-0.625-0.166-0.456-0.456-0.281-1.319 0.406-2.006zM23.929 20.968c-0.069 0.069-0.164 0.154-0.282 0.19-0.148 0.046-0.298 0.005-0.414-0.11-0.303-0.302-0.187-0.875 0.269-1.331s1.028-0.572 1.331-0.269c0.115 0.115 0.156 0.266 0.11 0.414-0.036 0.118-0.121 0.212-0.19 0.282-0.056 0.055-0.12 0.112-0.188 0.172-0.079 0.069-0.161 0.141-0.241 0.222s-0.153 0.162-0.222 0.241c-0.060 0.068-0.117 0.133-0.173 0.188z"></path></svg> 