<?xml version="1.0" encoding="UTF-8"?> <!-- Generated by IcoMoon.io --> <svg xmlns="http://www.w3.org/2000/svg" width="32" height="32" viewBox="0 0 32 32"><title>muffin-decorated-with-a-chocolate-heart</title><path d="M27.463 14.731c0-0.926-0.23-1.8-0.637-2.575-0.127 0.072-0.255 0.145-0.387 0.222l-1.427 0.818c0.231 0.467 0.363 0.986 0.363 1.535 0 0.826-0.295 1.585-0.786 2.195 1.118 0.534 1.809 1.254 1.809 2.050 0 1.638-2.911 2.966-6.501 2.966-3.181 0-5.823-1.043-6.386-2.42-0.36 0.17-0.756 0.272-1.178 0.272-0.657 0-1.254-0.239-1.733-0.623-0.643 0.697-1.554 1.136-2.569 1.136-1.946 0-3.523-1.604-3.523-3.58 0-1.803 1.313-3.29 3.020-3.539-0.099-0.323-0.156-0.662-0.156-1.013 0-2.119 1.923-3.836 4.296-3.836 0.098 0 0.193 0.008 0.29 0.014-0.249-0.412-0.403-0.884-0.403-1.394 0-1.169 0.749-2.17 1.814-2.594-0.018-0.765 0.108-1.524 0.359-2.241-2.293 0.35-4.081 2.202-4.248 4.487-2.32 0.788-4.015 2.792-4.182 5.176-1.724 0.979-2.877 2.852-2.877 4.94 0 2.575 1.711 4.751 4.044 5.438l1.053 6.663c0.269 1.708 1.64 2.966 3.324 3.139 0.129 0.014 0.255 0.035 0.388 0.035h9.058c0.131 0 0.258-0.021 0.388-0.035 1.684-0.173 3.055-1.431 3.324-3.137l0.886-5.662c0.003-0.001 0.006-0.002 0.008-0.003 2.218-0.885 3.592-2.383 3.592-4.187 0-0.661-0.194-1.731-1.23-2.741 0.138-0.484 0.208-0.989 0.208-1.503zM10.409 29.102l-1.027-6.884c0.504-0.128 0.991-0.319 1.441-0.58 0.075 0.024 0.155 0.035 0.232 0.057 0.007 0.001 0.015 0.003 0.022 0.004l1.318 8.909-0.225 0.001c-0.879 0.006-1.63-0.637-1.76-1.507zM14.889 30.608h-0.003v-7.456c0.001 0.001 0.002 0.001 0.003 0.001 0.554 0.217 1.139 0.388 1.739 0.52 0.058 0.013 0.115 0.027 0.174 0.040 0.057 0.013 0.114 0.019 0.17 0.031v6.865h-2.083zM19.12 30.608l0.999-6.712 1.768-0.245-0.791 5.445c-0.128 0.878-0.885 1.525-1.772 1.514l-0.204-0.003z"></path><path d="M17.992 9.707c1.188 0.182 2.372 0.489 3.448 0.957 0.677 0.295 1.23 0.708 1.725 1.187 1.983-1.138 4.245-2.436 4.311-2.475 2.011-1.161 2.7-3.732 1.539-5.742-0.778-1.348-2.191-2.102-3.643-2.102-0.709 0-1.426 0.179-2.084 0.556-0.78-1.34-2.188-2.088-3.636-2.088-0.712 0-1.434 0.181-2.097 0.563-2.009 1.16-2.698 3.731-1.538 5.741 0.033 0.058 0.985 1.699 1.975 3.403z"></path></svg> 