<?xml version="1.0" encoding="UTF-8"?> <!-- Generated by IcoMoon.io --> <svg xmlns="http://www.w3.org/2000/svg" width="32" height="32" viewBox="0 0 32 32"><title>oxygen-structure</title><path d="M18.114 9.822c0-6.264-3.588-9.822-8.881-9.822s-8.881 3.529-8.881 9.822c0 6.293 3.588 9.999 8.881 9.999s8.881-3.705 8.881-9.999zM5.527 9.822c0-3.47 1.412-5.47 3.705-5.47s3.706 2 3.706 5.47c0 3.47-1.412 5.646-3.706 5.646s-3.705-2.176-3.705-5.646z"></path><path d="M31.648 28.863v-0.002c0-0.606-0.491-1.097-1.096-1.098l-4.899-0.008c2.529-2.588 5.113-5.637 5.113-8.636 0-3.705-2.647-6.117-6.411-6.117-2.375 0-4.011 0.694-5.656 2.195-0.461 0.421-0.475 1.144-0.034 1.585l1.169 1.169c0.41 0.41 1.066 0.429 1.502 0.047 0.676-0.591 1.417-1.055 2.313-1.055 1.353 0 2.294 0.794 2.294 2.47 0 2.461-3.23 5.479-7.468 9.379-0.226 0.208-0.355 0.501-0.355 0.808v1.302c0 0.606 0.492 1.098 1.098 1.098h11.332c0.606 0 1.098-0.492 1.098-1.098v-2.039z"></path></svg> 