<?xml version="1.0" encoding="UTF-8"?> <!-- Generated by IcoMoon.io --> <svg xmlns="http://www.w3.org/2000/svg" width="32" height="32" viewBox="0 0 32 32"><title>photo-camera</title><path d="M16 12.8c-2.651 0-4.8 2.15-4.8 4.8s2.149 4.8 4.8 4.8c2.651 0 4.8-2.149 4.8-4.8s-2.149-4.8-4.8-4.8zM28.8 8h-3.84c-0.528 0-1.097-0.41-1.264-0.911l-0.993-2.979c-0.167-0.501-0.736-0.91-1.264-0.91h-10.88c-0.528 0-1.097 0.41-1.264 0.911l-0.993 2.979c-0.167 0.501-0.736 0.91-1.264 0.91h-3.84c-1.76 0-3.2 1.44-3.2 3.2v14.4c0 1.76 1.44 3.2 3.2 3.2h25.6c1.76 0 3.2-1.44 3.2-3.2v-14.4c0-1.76-1.44-3.2-3.2-3.2zM16 25.6c-4.418 0-8-3.582-8-8s3.582-8 8-8c4.418 0 8 3.582 8 8s-3.582 8-8 8zM27.68 13.438c-0.618 0-1.12-0.501-1.12-1.12s0.502-1.12 1.12-1.12c0.619 0 1.12 0.502 1.12 1.12s-0.501 1.12-1.12 1.12z"></path></svg> 