<?xml version="1.0" encoding="UTF-8"?> <!-- Generated by IcoMoon.io --> <svg xmlns="http://www.w3.org/2000/svg" width="32" height="32" viewBox="0 0 32 32"><title>project-manager</title><path d="M24.613 0.498c-3.418 0-6.198 2.78-6.198 6.198s2.781 6.198 6.198 6.198c3.418 0 6.198-2.78 6.198-6.198s-2.78-6.198-6.198-6.198zM24.613 10.761c-2.241 0-4.065-1.824-4.065-4.066s1.824-4.065 4.065-4.065c2.243 0 4.065 1.824 4.065 4.065s-1.822 4.066-4.065 4.066z"></path><path d="M26.952 7.092l-1.495-0.623c-0.050-0.19-0.158-0.348-0.308-0.465v-2.337c0-0.295-0.24-0.533-0.533-0.533-0.296 0-0.533 0.239-0.533 0.533v2.336c-0.21 0.162-0.356 0.406-0.356 0.692 0 0.491 0.396 0.888 0.887 0.888 0.162 0 0.306-0.055 0.435-0.13l1.493 0.622c0.067 0.028 0.137 0.041 0.206 0.041 0.208 0 0.406-0.123 0.491-0.328 0.112-0.272-0.015-0.584-0.287-0.697z"></path><path d="M11.461 19.984c3.726 0 6.617-4.156 6.617-7.731 0-3.649-2.97-6.618-6.617-6.618-3.649 0-6.617 2.969-6.617 6.618 0 3.575 2.889 7.731 6.617 7.731zM11.461 8.006c2.341 0 4.244 1.905 4.244 4.247 0 2.412-1.958 5.36-4.244 5.36s-4.247-2.948-4.247-5.36c0-2.342 1.904-4.247 4.247-4.247z"></path><path d="M17.911 16.871c0.008 0.108 0.021 0.216 0.021 0.326 0 1.989-2.924 6.481-4.84 9.215l-0.787-3.856 0.933-0.934c0.045-0.045 0.045-0.118 0-0.162l-0.453-0.454c-0.179-0.18-0.423-0.28-0.676-0.28h-1.297c-0.253 0-0.496 0.101-0.675 0.279l-0.374 0.374c-0.043 0.043-0.067 0.101-0.067 0.162s0.024 0.119 0.067 0.162l0.852 0.852-0.787 3.856c-1.916-2.735-4.838-7.226-4.838-9.215 0-0.11 0.012-0.217 0.019-0.326-2.279 1.303-3.817 3.753-3.817 6.566v5.050c0 1.665 1.35 3.015 3.016 3.015h14.51c1.664 0 3.013-1.349 3.013-3.015v-5.050c0-2.813-1.537-5.262-3.817-6.566z"></path></svg> 