<?xml version="1.0" encoding="UTF-8"?> <!-- Generated by IcoMoon.io --> <svg xmlns="http://www.w3.org/2000/svg" width="32" height="32" viewBox="0 0 32 32"><title>quality</title><path d="M14.183 24.997c-1.248 1.153-2.973 1.411-4.503 0.674-0.553-0.266-1.020-0.634-1.386-1.075l-2.084 4.609c-0.095 0.21 0.011 0.368 0.061 0.426s0.19 0.187 0.412 0.125l1.517-0.422c0.173-0.048 0.348-0.071 0.52-0.071 0.727 0 1.411 0.411 1.741 1.093l0.685 1.418c0.1 0.207 0.288 0.228 0.366 0.226 0.077-0.001 0.265-0.026 0.36-0.236l3.315-7.331c-0.364 0.105-0.709 0.293-1.003 0.564z"></path><path d="M25.789 29.205l-2.084-4.609c-0.366 0.441-0.832 0.809-1.386 1.075-1.53 0.737-3.256 0.479-4.503-0.674-0.294-0.271-0.639-0.459-1.003-0.564l3.315 7.332c0.095 0.21 0.283 0.235 0.36 0.236 0.078 0.002 0.266-0.019 0.366-0.226l0.685-1.418c0.329-0.682 1.014-1.093 1.741-1.093 0.172 0 0.347 0.023 0.52 0.071l1.517 0.422c0.222 0.062 0.362-0.067 0.412-0.125s0.156-0.216 0.061-0.426z"></path><path d="M27.426 12.987c-1.731-1.185-2.268-3.538-1.223-5.356 0.628-1.093 0.301-2.173-0.214-2.82s-1.496-1.205-2.701-0.836c-2.005 0.614-4.18-0.433-4.95-2.384-0.463-1.173-1.511-1.591-2.338-1.591s-1.875 0.418-2.338 1.591c-0.77 1.951-2.945 2.998-4.95 2.384-1.206-0.369-2.186 0.19-2.701 0.836s-0.842 1.727-0.214 2.82c1.045 1.819 0.508 4.171-1.223 5.356-1.040 0.712-1.214 1.828-1.031 2.633s0.825 1.735 2.071 1.925c2.073 0.317 3.578 2.203 3.426 4.295-0.092 1.258 0.672 2.089 1.416 2.448s1.871 0.437 2.797-0.419c0.77-0.712 1.759-1.068 2.747-1.068s1.977 0.356 2.747 1.068c0.926 0.856 2.052 0.777 2.797 0.419s1.508-1.19 1.416-2.448c-0.152-2.092 1.352-3.979 3.426-4.296 1.246-0.19 1.887-1.12 2.071-1.925s0.010-1.921-1.030-2.634zM16 20.995c-4.536 0-8.226-3.69-8.226-8.226s3.69-8.226 8.226-8.226c4.536 0 8.226 3.69 8.226 8.226s-3.69 8.226-8.226 8.226z"></path><path d="M16 6.077c-3.69 0-6.692 3.002-6.692 6.692s3.002 6.692 6.692 6.692 6.692-3.002 6.692-6.692-3.002-6.692-6.692-6.692zM19.43 12.12l-4.165 3.042c-0.132 0.097-0.291 0.148-0.452 0.148-0.042 0-0.083-0.003-0.125-0.010-0.203-0.034-0.384-0.147-0.503-0.316l-1.246-1.774c-0.243-0.347-0.16-0.825 0.187-1.068s0.825-0.16 1.068 0.187l0.797 1.135 3.534-2.581c0.342-0.25 0.822-0.175 1.072 0.167s0.175 0.822-0.167 1.072z"></path></svg> 