<?xml version="1.0" encoding="UTF-8"?> <!-- Generated by IcoMoon.io --> <svg xmlns="http://www.w3.org/2000/svg" width="32" height="32" viewBox="0 0 32 32"><title>restaurant-interface-symbol-of-fork-and-knife-couple</title><path d="M10.039 11.498v18.372c0 0.479 0.175 0.893 0.525 1.243 0.344 0.344 0.751 0.517 1.22 0.523 0.469-0.005 0.876-0.179 1.221-0.523 0.35-0.35 0.525-0.764 0.525-1.243v-18.372c0.525-0.184 2.493-1.938 2.493-2.5v-7.389c0-0.239-0.088-0.446-0.262-0.621s-0.383-0.262-0.621-0.262c-0.24 0-0.447 0.088-0.621 0.262s-0.262 0.383-0.262 0.621v5.745c0 0.24-0.088 0.447-0.262 0.621s-0.382 0.262-0.621 0.262c-0.24 0-0.447-0.087-0.621-0.262s-0.262-0.382-0.262-0.621v-5.745c0-0.239-0.088-0.446-0.262-0.621s-0.382-0.262-0.621-0.262c-0.24 0-0.447 0.088-0.621 0.262s-0.262 0.383-0.262 0.621v5.745c0 0.24-0.088 0.447-0.262 0.621s-0.382 0.262-0.621 0.262c-0.24 0-0.447-0.087-0.621-0.262s-0.262-0.382-0.262-0.621v-5.745c0-0.239-0.087-0.446-0.262-0.621s-0.382-0.262-0.621-0.262c-0.24 0-0.447 0.088-0.621 0.262s-0.262 0.383-0.262 0.621v7.389c0 0.562 2.33 2.316 2.855 2.5z"></path><path d="M11.806 31.637c-0.008 0-0.015-0.002-0.023-0.002s-0.014 0.002-0.022 0.002h0.045z"></path><path d="M23.093 32c-0.008 0-0.015-0.002-0.022-0.002s-0.015 0.002-0.022 0.002h0.045z"></path><path d="M19.32 15.91h2.006v14.322c0 0.479 0.175 0.893 0.525 1.243 0.344 0.344 0.751 0.517 1.221 0.523 0.469-0.005 0.876-0.179 1.221-0.523 0.35-0.35 0.525-0.764 0.525-1.243v-29.348c0-0.239-0.088-0.446-0.262-0.621s-0.382-0.262-0.621-0.262h-0.635c-1.216 0-2.256 0.433-3.121 1.298s-1.298 1.906-1.298 3.121v11.049c0 0.12 0.044 0.223 0.131 0.311s0.191 0.131 0.31 0.131z"></path></svg> 