<?xml version="1.0" encoding="UTF-8"?> <!-- Generated by IcoMoon.io --> <svg xmlns="http://www.w3.org/2000/svg" width="32" height="32" viewBox="0 0 32 32"><title>santa-claus-face</title><path d="M11.97 17.224c0 0.672-0.544 1.216-1.216 1.216-0.671 0-1.216-0.544-1.216-1.216 0-0.671 0.545-1.215 1.216-1.215 0.672 0 1.216 0.545 1.216 1.215z"></path><path d="M21.124 17.224c0 0.672-0.544 1.216-1.216 1.216-0.671 0-1.216-0.544-1.216-1.216 0-0.671 0.545-1.215 1.216-1.215 0.672 0 1.216 0.545 1.216 1.215z"></path><path d="M30.292 12.659c0-1.814-1.141-3.357-2.737-3.976-0.37-1.984-2.355-8.683-12.322-8.683-4.165 0-7.718 2.502-9.324 6.070h-0.443c-2.072 0-3.758 1.882-3.758 4.194 0 1.225 0.482 2.319 1.235 3.086-0.639 1.574-1.020 3.282-1.020 5.089 0 7.489 6.004 13.56 13.409 13.56s13.408-6.071 13.408-13.56c0-0.798-0.081-1.576-0.215-2.334 1.067-0.778 1.768-2.028 1.768-3.447zM23.974 16.395c0 0.016 0.002 0.031 0.002 0.047 0 1.804-0.566 3.542-1.594 4.99-1.199-1.202-2.761-1.732-4.184-1.965 0.024-0.153 0.047-0.308 0.047-0.468 0-0.498-0.404-0.903-0.902-0.903s-0.902 0.404-0.902 0.903c0 0.665-0.541 1.206-1.206 1.206s-1.207-0.542-1.207-1.206c0-0.498-0.404-0.903-0.902-0.903s-0.902 0.404-0.902 0.903c0 0.174 0.022 0.342 0.052 0.509-1.371 0.246-2.846 0.772-3.995 1.924-1.028-1.446-1.594-3.185-1.594-4.99 0-0.684 0.087-1.346 0.238-1.984h15.23c0.385 0.824 1.029 1.498 1.82 1.938zM5.466 8.476l14.752 0.002c-0.337-0.788-0.94-1.989-2.063-3.784 0 0 2.224 1.544 3.71 3.445 0.075 0.090 0.14 0.179 0.207 0.27 0.053 0.073 0.102 0.147 0.153 0.221 0.1 0.149 0.202 0.295 0.283 0.442 0.141 0.238 0.262 0.479 0.363 0.719-0.563 0.617-0.94 1.395-1.065 2.261h-16.34c-0.733 0-1.352-0.819-1.352-1.788s0.619-1.788 1.352-1.788zM15.331 30.196c-6.398 0-11.604-5.274-11.604-11.756 0-1.463 0.284-2.851 0.777-4.139 0.19 0.057 0.387 0.092 0.588 0.115-0.132 0.656-0.211 1.331-0.211 2.026 0 3.168 1.416 6.001 3.644 7.918 0.784-2.106 2.518-2.894 4.677-3.154 0.536 0.495 1.246 0.804 2.031 0.804 0.793 0 1.511-0.315 2.049-0.818 2.241 0.236 4.050 1.006 4.855 3.168 2.116-1.82 3.484-4.472 3.618-7.446 0.088 0.006 0.174 0.020 0.264 0.020 0.271 0 0.536-0.032 0.793-0.080 0.074 0.52 0.122 1.047 0.122 1.586 0 6.482-5.205 11.756-11.603 11.756zM26.019 14.528c-1.030 0-1.869-0.838-1.869-1.869s0.839-1.868 1.869-1.868c1.029 0 1.867 0.838 1.867 1.868s-0.838 1.869-1.867 1.869z"></path><path d="M15.331 27.041c-1.692 0-3.307-0.522-4.674-1.51-0.404-0.292-0.494-0.855-0.202-1.259s0.858-0.496 1.259-0.202c2.111 1.525 5.118 1.525 7.232 0 0.404-0.295 0.968-0.202 1.259 0.202 0.293 0.404 0.202 0.968-0.202 1.259-1.366 0.988-2.982 1.51-4.673 1.51z"></path></svg> 