<?xml version="1.0" encoding="UTF-8"?> <!-- Generated by IcoMoon.io --> <svg xmlns="http://www.w3.org/2000/svg" width="32" height="32" viewBox="0 0 32 32"><title>servant-outline</title><path d="M22.512 17.442l-2.655-0.663c1.098-0.976 1.986-2.318 2.578-3.799 0.88-0.159 1.704-0.858 1.837-2.463 0.128-1.551-0.382-2.19-1.037-2.446-0.018-0.496-0.081-0.956-0.107-1.391-0.296-4.899-2.759-7.054-6.739-6.627-0.522 0.056-1.032 0.088-1.551 0.004-2.079-0.342-4.249 1.255-5.306 2.919-1.368 2.155-0.846 5.048-0.849 5.142-0.6 0.284-1.046 0.936-0.926 2.399 0.128 1.553 0.904 2.258 1.751 2.445 0.605 1.486 1.509 2.841 2.618 3.825l-2.633 0.656c-3.594 0.9-6.112 4.114-6.112 7.817v4.433c0 1.258 1.041 2.306 2.299 2.306h20.648c1.258 0 2.29-1.048 2.29-2.305v-4.433c-0.001-3.705-2.514-6.92-6.108-7.82zM7.749 30.597h-2.068c-0.485 0-0.897-0.418-0.897-0.903v-4.433c0-2.272 1.161-4.322 2.965-5.531v10.866zM10.070 8.872c0-0.206 0.031-0.409 0.091-0.607 0.163-0.527 0.372-0.978 0.579-1.344 0.358-0.633 0.939-1.112 1.629-1.342 0.021-0.007 0.042-0.014 0.062-0.021 0.243-0.083 0.51 0.009 0.649 0.224s0.115 0.497-0.060 0.685c-0.033 0.035-0.066 0.070-0.1 0.104-0.105 0.109-0.129 0.273-0.059 0.407s0.219 0.208 0.368 0.183c1.455-0.24 4.003-0.878 5.92-2.531 0.509-0.438 1.271-0.394 1.726 0.099 0.431 0.468 0.71 1.050 0.806 1.68 0.107 0.703 0.164 1.519 0.164 2.464 0 3.67-2.627 8.104-5.889 8.104-3.261 0-5.887-4.433-5.887-8.104zM16.521 30.597h-1.014l-4.828-11.993 3.015-0.759c0.71 0.341 1.47 0.532 2.265 0.532 0.823 0 1.606-0.196 2.332-0.544l3.066 0.777-4.837 11.987zM27.217 29.695c0 0.485-0.404 0.903-0.889 0.903h-2.024v-10.836c1.778 1.213 2.912 3.246 2.912 5.5v4.433z"></path><path d="M16.792 23.906c0 0.442-0.359 0.801-0.801 0.801s-0.801-0.359-0.801-0.801c0-0.442 0.359-0.801 0.801-0.801s0.801 0.359 0.801 0.801z"></path><path d="M16.792 26.764c0 0.442-0.359 0.801-0.801 0.801s-0.801-0.359-0.801-0.801c0-0.442 0.359-0.801 0.801-0.801s0.801 0.359 0.801 0.801z"></path><path d="M18.374 19.038l-1.443 0.418c-0.022 0.006-0.044 0.011-0.067 0.015-0.234-0.205-0.537-0.341-0.87-0.341s-0.636 0.135-0.87 0.341c-0.022-0.003-0.045-0.009-0.067-0.015l-1.438-0.419c-0.431-0.124-0.84 0.201-0.84 0.649v1.636c0 0.45 0.41 0.773 0.842 0.648l1.502-0.438c0.234 0.208 0.537 0.337 0.871 0.346 0.335-0.010 0.639-0.139 0.873-0.346l1.505 0.438c0.431 0.125 0.847-0.198 0.847-0.648v-1.636c-0.001-0.449-0.415-0.772-0.847-0.648z"></path></svg> 