<?xml version="1.0" encoding="UTF-8"?> <!-- Generated by IcoMoon.io --> <svg xmlns="http://www.w3.org/2000/svg" width="32" height="32" viewBox="0 0 32 32"><title>smoking-area</title><path d="M26 23.5h-8.18l-0.182 2h8.362c0.552 0 1-0.448 1-1s-0.448-1-1-1z"></path><path d="M18.5 16c0-0.863-0.136-1.709-0.389-2.523-0.101 0.010-0.201 0.023-0.304 0.023h-6.308c-1.379 0-2.5 1.121-2.5 2.5v0.207l-0.937 0.936-1.357-0.905c-0.234-0.155-0.506-0.238-0.787-0.238-0.782 0-1.419 0.637-1.419 1.419v0.942c0 0.305 0.101 0.608 0.284 0.852l1.216 1.622v1.373l-1.905 1.905c0.362 0.349 0.757 0.669 1.184 0.954l0.222 0.148v5.785h7v-3.5h-0.5c-2.482 0-4.5-2.018-4.5-4.5v-0.5h1v0.5c0 1.93 1.57 3.5 3.5 3.5h4.544l0.488-5.371 1.468-0.489zM14.5 17.5c-1.425 0-2.5-0.645-2.5-1.5h1c0 0.125 0.532 0.5 1.5 0.5s1.5-0.375 1.5-0.5h1c0 0.855-1.075 1.5-2.5 1.5z"></path><path d="M5 21.166l-1.016-1.355c-0.312-0.416-0.484-0.931-0.484-1.451v-0.942c0-1.334 1.085-2.419 2.419-2.419 0.479 0 0.942 0.14 1.341 0.406l0.676 0.45 0.070-0.070c0.11-1.831 1.635-3.286 3.493-3.286h6.308c0.823 0 1.552-0.493 1.857-1.257 0.192-0.479 0.192-1.007 0-1.486l-0.355-0.887-0.453 0.428c-0.817 0.775-1.887 1.202-3.013 1.202h-1.514l1.222-1.278c0.846-0.885 1.136-2.122 0.811-3.257-0.834 0.978-2.040 1.535-3.331 1.535h-3.032c-0.103 0-0.207 0.002-0.31 0.005-4.516 0.16-8.19 4.067-8.19 8.71v1.784c0 1.988 0.692 3.878 1.917 5.377l1.583-1.584z"></path><path d="M30.61 11.389c-0.574-0.573-1.323-0.889-2.11-0.889-0 0-0.001 0-0.001 0-1.654 0.001-3 1.346-3 3h1c0-1.102 0.897-1.999 2-2h0.001c0.52 0 1.018 0.212 1.403 0.597s0.596 0.884 0.596 1.404c-0 1.103-0.898 1.999-2 1.999h-0.5v1.25c0 0.413-0.337 0.75-0.75 0.75-0.965 0-1.75 0.785-1.75 1.75v2.75h1v-2.75c0-0.413 0.337-0.75 0.75-0.75 0.965 0 1.75-0.785 1.75-1.75v-0.291c1.416-0.239 2.5-1.474 2.5-2.958 0-0.787-0.316-1.537-0.89-2.111z"></path><path d="M20.010 6.46c0.105 1.143 1.070 2.040 2.24 2.040 0.689 0 1.25 0.56 1.25 1.25v1c0 0.698-0.231 1.391-0.65 1.95-0.548 0.731-0.85 1.637-0.85 2.55s0.302 1.82 0.85 2.55c0.419 0.558 0.65 1.251 0.65 1.95v2.25h1v-2.25c0-0.913-0.302-1.82-0.85-2.55-0.419-0.558-0.65-1.251-0.65-1.95s0.231-1.391 0.65-1.95c0.549-0.731 0.85-1.636 0.85-2.55v-1c0-1.241-1.009-2.25-2.25-2.25-0.689 0-1.25-0.561-1.25-1.25v-0.75h-0.5c-1.102 0-2-0.897-2-2 0-0.52 0.212-1.018 0.596-1.404s0.884-0.597 1.403-0.597h0.001c1.102 0 2 0.898 2 2h1c0-1.654-1.346-2.999-3-3 0 0-0 0-0.001 0-0.787 0-1.536 0.316-2.11 0.889-0.573 0.575-0.89 1.324-0.889 2.111 0 1.487 1.088 2.724 2.51 2.959z"></path></svg> 