<?xml version="1.0" encoding="UTF-8"?> <!-- Generated by IcoMoon.io --> <svg xmlns="http://www.w3.org/2000/svg" width="32" height="32" viewBox="0 0 32 32"><title>stats</title><path d="M13.573 15.491l-12.846 7.337c-0.712 0.405-0.94 1.371-0.509 2.082s1.345 0.888 1.978 0.352c0.007 0 11.403-9.798 11.377-9.772z"></path><path d="M2.659 2.423h29.341v3.198h-29.341v-3.198z"></path><path d="M20.453 24.858l0.836 4.719h3.505l-0.842-4.719z"></path><path d="M9.865 29.577h3.505l0.809-4.719h-3.499z"></path><path d="M4.663 18.794l8.127-4.634c0.946-0.535 1.749-0.242 2.304 0.829 0.228 0.607 0.052 1.319-0.457 1.749l-7.715 6.547h20.94c1.195 0 2.134-1.038 2.134-2.311v-13.78h-25.333v11.599zM25.936 9.779c0-0.431 0.352-0.79 0.79-0.79 0.431 0 0.79 0.352 0.79 0.79v9.367c0 0.431-0.352 0.79-0.79 0.79-0.431 0-0.79-0.352-0.79-0.79v-9.367zM22.098 11.659c0-0.431 0.352-0.79 0.79-0.79 0.431 0 0.79 0.352 0.79 0.79v7.487c0 0.431-0.352 0.79-0.79 0.79-0.431 0-0.79-0.352-0.79-0.79v-7.487zM18.266 13.154c0-0.431 0.352-0.79 0.79-0.79 0.431 0 0.79 0.352 0.79 0.79v5.992c0 0.431-0.352 0.79-0.79 0.79-0.431 0-0.79-0.352-0.79-0.79v-5.992z"></path></svg> 