<?xml version="1.0" encoding="UTF-8"?> <!-- Generated by IcoMoon.io --> <svg xmlns="http://www.w3.org/2000/svg" width="32" height="32" viewBox="0 0 32 32"><title>sun</title><path d="M16 7.985c-4.419 0-8.015 3.596-8.015 8.016s3.595 8.016 8.015 8.016c4.419 0 8.015-3.595 8.015-8.016s-3.596-8.016-8.015-8.016z"></path><path d="M16 5.629c-0.864 0-1.564-0.7-1.564-1.563v-2.502c0-0.864 0.7-1.564 1.564-1.564s1.564 0.7 1.564 1.564v2.502c0 0.863-0.701 1.563-1.564 1.563z"></path><path d="M16 26.37c-0.864 0-1.564 0.7-1.564 1.564v2.501c0 0.864 0.7 1.565 1.564 1.565s1.564-0.7 1.564-1.565v-2.501c0-0.864-0.701-1.564-1.564-1.564z"></path><path d="M23.332 8.667c-0.61-0.611-0.61-1.601 0-2.212l1.769-1.769c0.61-0.61 1.601-0.61 2.212 0s0.611 1.601 0 2.212l-1.769 1.769c-0.61 0.611-1.6 0.611-2.212 0z"></path><path d="M8.667 23.334c-0.611-0.611-1.601-0.611-2.212 0l-1.769 1.769c-0.61 0.61-0.611 1.601 0 2.212s1.601 0.61 2.212 0l1.769-1.77c0.611-0.61 0.611-1.601 0-2.21z"></path><path d="M26.37 16c0-0.864 0.7-1.564 1.564-1.564h2.502c0.864 0 1.564 0.7 1.564 1.564s-0.7 1.563-1.564 1.563h-2.502c-0.864 0-1.564-0.699-1.564-1.563z"></path><path d="M5.629 16c0-0.864-0.7-1.564-1.564-1.564h-2.501c-0.864 0-1.564 0.7-1.564 1.564s0.7 1.563 1.564 1.563h2.502c0.863 0 1.563-0.699 1.563-1.563z"></path><path d="M23.332 23.334c0.611-0.61 1.601-0.61 2.212 0l1.769 1.769c0.611 0.609 0.611 1.601 0 2.211s-1.601 0.61-2.212 0l-1.769-1.769c-0.611-0.611-0.611-1.601 0-2.211z"></path><path d="M8.667 8.667c0.611-0.611 0.611-1.601 0-2.212l-1.769-1.769c-0.611-0.611-1.601-0.611-2.212 0s-0.611 1.601 0 2.211l1.769 1.769c0.611 0.611 1.601 0.611 2.212 0z"></path></svg> 