<?xml version="1.0" encoding="UTF-8"?> <!-- Generated by IcoMoon.io --> <svg xmlns="http://www.w3.org/2000/svg" width="32" height="32" viewBox="0 0 32 32"><title>swan-facing-right</title><path d="M12.433 31.564c18.277 2.767 18.919-8.558 18.919-8.558 0.71-8.108-7.594-10.489-10.101-14.994-2.511-4.503 3.312-5.18 2.957-2.283-0.352 2.893 1.352 3.411 1.449 3.636 0.095 0.224 2.572 2.703 2.927 2.237 0.353-0.469-1.014-2.237-1.014-2.237s1.061-0.613 1.462-1.996c1.159-3.155-4.567-10.746-10.615-5.664-5.922 5.471 1.992 11.393 4.054 14.352 2.059 2.96 1.983 5.193 0.706 5.599-1.305 0.413-2.325-0.887-2.86-2.898-0.499-1.875-3.795-7.913-10.811-5.986-5.211 1.676-4.603 3.733-8.787 2.575-1.478 14.093 11.713 16.216 11.713 16.216z"></path></svg> 