<?xml version="1.0" encoding="UTF-8"?> <!-- Generated by IcoMoon.io --> <svg xmlns="http://www.w3.org/2000/svg" width="32" height="32" viewBox="0 0 32 32"><title>sweet-cake-piece</title><path d="M30.358 15.146c-0.563-1.465-1.179-3.082-2.169-4.321-0.748-0.937-2.151-1.748-3.394-1.558-0.016 0.002-0.12 0.025-0.3 0.065 0.045 0.311 0.068 0.626 0.068 0.944 0 0.884-0.174 1.743-0.516 2.552-0.33 0.781-0.803 1.482-1.404 2.083s-1.302 1.074-2.083 1.404c-0.81 0.342-1.668 0.516-2.552 0.516s-1.743-0.174-2.552-0.516c-0.781-0.33-1.482-0.803-2.083-1.404s-1.074-1.302-1.404-2.083c-0.081-0.192-0.153-0.387-0.215-0.584-5.152 1.182-9.928 2.279-10.207 2.344-0.246 0.057-0.545 0.091-0.766 0.209-0.186 0.099-0.32 0.257-0.32 0.539v12.859c0 0.507 0.536 0.974 1.196 1.042l26.282 2.735c1.977 0.206 3.582-0.86 3.582-2.382 0-0.961-0.639-1.87-1.608-2.465 0.969-0.392 1.608-1.17 1.608-2.129s-0.639-1.869-1.607-2.462c2.858-1.164 1.243-5.312 0.445-7.391zM24.063 29.481l-21.077-2.195v-2.107l21.077 2.193c1.977 0.206 3.582 0.844 3.582 1.426s-1.605 0.889-3.582 0.683zM24.063 25.282l-21.077-2.195v-2.108l21.077 2.196c1.977 0.206 3.582 0.844 3.582 1.426s-1.605 0.887-3.582 0.681zM24.063 21.083l-21.077-2.193v-2.108l21.077 2.193c1.977 0.206 3.582 0.846 3.582 1.427 0 0.584-1.605 0.887-3.582 0.681z"></path><path d="M13.472 10.278c0 0.531 0.092 1.041 0.259 1.514 0.623 1.76 2.302 3.020 4.275 3.020 2.505 0 4.535-2.030 4.535-4.535 0-0.167-0.009-0.333-0.027-0.495-0.247-2.271-2.171-4.039-4.508-4.039-0.239 0-0.473 0.019-0.702 0.054-0.155-0.317-0.327-0.628-0.513-0.93-0.187-0.305-0.387-0.602-0.597-0.891-0.257-0.354-0.528-0.696-0.805-1.024-0.516-0.611-1.077-1.189-1.693-1.7-0.54-0.448-1.113-0.879-1.758-1.164-0.365-0.161-0.783-0.11-1.001 0.262-0.184 0.315-0.102 0.839 0.262 1.001 0.303 0.134 0.59 0.301 0.864 0.486 0.079 0.054 0.158 0.108 0.235 0.164 0.028 0.021 0.129 0.097 0.155 0.117 0.117 0.093 0.232 0.187 0.345 0.284 0.298 0.257 0.584 0.528 0.857 0.811 0.288 0.298 0.565 0.607 0.827 0.928 0.075 0.091 0.148 0.183 0.221 0.276 0 0 0 0 0.001 0.001 0.003 0.003 0.005 0.007 0.009 0.011 0.030 0.040 0.061 0.081 0.091 0.121 0.001 0.002 0.002 0.003 0.003 0.005 0.119 0.16 0.236 0.323 0.348 0.488 0.078 0.115 0.155 0.232 0.23 0.35 0.147 0.229 0.286 0.463 0.417 0.702 0.031 0.057 0.061 0.113 0.091 0.17-1.441 0.76-2.423 2.272-2.423 4.014z"></path></svg> 