<?xml version="1.0" encoding="UTF-8"?> <!-- Generated by IcoMoon.io --> <svg xmlns="http://www.w3.org/2000/svg" width="32" height="32" viewBox="0 0 32 32"><title>tea</title><path d="M7.636 10.119c0.509-0.283 0.482-0.214 0.403-0.276-0.545-0.419-0.865-1.067-0.866-1.754v-4.778c0-1.219 0.988-2.207 2.207-2.207h11.034c1.219 0 2.207 0.988 2.207 2.207v4.778c-0.001 0.654-0.292 1.275-0.794 1.694-0.073 0.060-0.048 0.038-0.11 0.094 0.383 0.184 0.845 0.441 1.032 0.552 0.625-0.618 0.977-1.46 0.977-2.339v-4.778c0-1.828-1.482-3.31-3.31-3.31h-11.034c-1.828 0-3.31 1.482-3.31 3.31v4.778c-0.001 0.887 0.357 1.737 0.993 2.356 0.188-0.116 0.381-0.221 0.574-0.326z"></path><path d="M2.207 32h27.586c0.701-0.002 1.326-0.443 1.561-1.103h-30.709c0.236 0.66 0.86 1.102 1.561 1.103z"></path><path d="M9.677 10.383c1.077 0.924 3.718 1.203 5.219 1.203 1.537 0.045 3.068-0.218 4.502-0.772 0.263-0.111 0.508-0.26 0.728-0.441-1.648-0.651-3.403-0.988-5.175-0.993 1.241-0.015 2.238-1.030 2.23-2.271s-1.016-2.244-2.258-2.244-2.25 1.002-2.258 2.244c-0.008 1.241 0.989 2.256 2.23 2.271-1.788-0.003-3.56 0.338-5.219 1.004zM14.874 8.276c-0.606-0.012-1.089-0.511-1.081-1.118s0.504-1.093 1.111-1.089 1.096 0.497 1.096 1.103c0 0.297-0.119 0.581-0.331 0.788s-0.498 0.321-0.795 0.315z"></path><path d="M2.257 29.793h25.28c0.219 0.002 0.418-0.126 0.508-0.326 1.513-3.467 1.597-7.391 0.232-10.919-0.209-0.525-0.215-1.109-0.017-1.639h0.006l2.637-6.781c0.065-0.169 0.043-0.36-0.059-0.51s-0.272-0.24-0.454-0.24h-2.345c-0.146 0.001-0.287 0.058-0.392 0.16l-1.992 1.992c-0.759 0.746-1.939 0.852-2.819 0.254-0.531-0.347-1.081-0.662-1.65-0.943-1.048 1.448-4.499 1.848-6.295 1.848-1.317 0.012-2.629-0.155-3.901-0.497-0.678-0.178-1.32-0.471-1.898-0.866-0.010-0.002-0.018-0.008-0.022-0.017-0.175-0.128-0.331-0.28-0.463-0.452-0.017 0.011-0.039 0.017-0.055 0.028-6.86 3.386-9.855 11.56-6.808 18.577 0.088 0.202 0.288 0.332 0.508 0.331zM6.621 13.793c0.305 0 0.552 0.247 0.552 0.552s-0.247 0.552-0.552 0.552-0.552-0.247-0.552-0.552 0.247-0.552 0.552-0.552zM4.43 15.663c0.115-0.17 0.315-0.262 0.519-0.239s0.378 0.158 0.452 0.349c0.074 0.191 0.036 0.408-0.099 0.563-2.574 3.295-3.251 7.691-1.788 11.608 0.107 0.286-0.039 0.605-0.326 0.712s-0.605-0.039-0.712-0.326c-1.594-4.275-0.855-9.071 1.953-12.668z"></path></svg> 