<?xml version="1.0" encoding="UTF-8"?> <!-- Generated by IcoMoon.io --> <svg xmlns="http://www.w3.org/2000/svg" width="32" height="32" viewBox="0 0 32 32"><title>tequila-bottle</title><path d="M12.058 19.924c0.912-1.061 2.384-1.707 3.942-1.707s3.030 0.645 3.942 1.707h5.672v-0.951c0-2.288-1.603-4.883-3.65-5.906l-0.721-0.361c-0.499-0.25-1.043-0.49-1.602-0.709v-2.398h-7.28v2.398c-0.559 0.219-1.103 0.46-1.602 0.709l-0.721 0.36c-2.047 1.023-3.65 3.618-3.65 5.906v0.951h5.672z"></path><path d="M18.259 0.959c-0.573-0.591-1.374-0.959-2.259-0.959s-1.687 0.368-2.259 0.959h4.519z"></path><path d="M11.733 2.534c-0.333 0-0.647 0.153-0.851 0.415s-0.277 0.604-0.197 0.927l0.853 3.413c0.101 0.406 0.425 0.708 0.821 0.793v0.005l7.28-0.005c0.396-0.085 0.72-0.388 0.821-0.793l0.853-3.413c0.081-0.323 0.008-0.665-0.197-0.927s-0.519-0.415-0.851-0.415h-8.533z"></path><path d="M19.942 24.85c-0.912 1.061-2.384 1.707-3.942 1.707s-3.030-0.645-3.942-1.707h-5.672v2.657c0 2.478 2.016 4.493 4.493 4.493h10.24c2.478 0 4.493-2.016 4.493-4.493v-2.657h-5.672z"></path><path d="M18.953 21.114c-0.597-0.854-1.729-1.384-2.953-1.384s-2.356 0.53-2.953 1.384c-0.141 0.202-0.373 0.323-0.62 0.323h-5.986v1.901h5.986c0.247 0 0.478 0.12 0.62 0.323 0.597 0.854 1.729 1.384 2.953 1.384s2.356-0.53 2.953-1.384c0.141-0.202 0.373-0.323 0.62-0.323h5.986v-1.901h-5.986c-0.247 0-0.478-0.12-0.62-0.322z"></path></svg> 