<?xml version="1.0" encoding="UTF-8"?> <!-- Generated by IcoMoon.io --> <svg xmlns="http://www.w3.org/2000/svg" width="32" height="32" viewBox="0 0 32 32"><title>three-tier-pyramid</title><path d="M11.507 9.821c-0.124-0.215-0.124-0.478 0-0.693l3.893-6.744c0.247-0.429 0.952-0.429 1.2 0l3.893 6.744c0.124 0.215 0.124 0.477 0 0.693s-0.353 0.346-0.6 0.346h-7.786c-0.247 0-0.476-0.132-0.6-0.346zM6.648 19.622h18.705c0.248 0 0.477-0.132 0.6-0.346s0.124-0.478 0-0.693l-3.397-5.883c-0.124-0.215-0.353-0.346-0.6-0.346h-11.91c-0.247 0-0.477 0.132-0.6 0.346l-3.398 5.883c-0.124 0.215-0.124 0.478 0 0.693 0.123 0.214 0.351 0.346 0.599 0.346zM31.907 28.898l-3.893-6.743c-0.124-0.215-0.353-0.346-0.6-0.346h-22.828c-0.247 0-0.477 0.132-0.6 0.346l-3.893 6.743c-0.124 0.215-0.124 0.478 0 0.693s0.353 0.346 0.6 0.346h30.615c0.247 0 0.477-0.132 0.6-0.346s0.124-0.479 0-0.693z"></path></svg> 