<?xml version="1.0" encoding="UTF-8"?> <!-- Generated by IcoMoon.io --> <svg xmlns="http://www.w3.org/2000/svg" width="32" height="32" viewBox="0 0 32 32"><title>wine-glasses</title><path d="M4.711 17.55c-0.397 1.994 0.873 3.949 2.866 4.379 2.013 0.437 4.004-0.845 4.439-2.858l0.613-5.619c-2.013-1.092-1.275 3.435-4.752 2.685-2.388-0.517-3.039 1.011-3.166 1.413z"></path><path d="M30.561 24.297c-0.157-0.472-0.669-0.733-1.14-0.572l-2.508 0.834-1.577-4.743c1.295-0.636 2.357-1.648 3.015-2.961 0.795-1.587 0.924-3.388 0.336-5.146l-4.12-9.522-10.955 3.645 0.732 2.978-9.363-2.024-3.087 9.988c-0.375 1.735-0.052 3.512 0.91 5.004 0.795 1.234 1.96 2.125 3.316 2.616l-1.057 4.886-2.579-0.556c-0.485-0.098-0.967 0.204-1.072 0.692s0.204 0.966 0.691 1.072l3.453 0.746c0.003 0 0.004 0.002 0.006 0.002 0.004 0.001 0.008 0 0.012 0.001l3.454 0.746c0.065 0.014 0.128 0.020 0.192 0.020 0.415 0 0.789-0.289 0.88-0.712 0.105-0.487-0.204-0.967-0.692-1.072l-2.581-0.558 1.053-4.866c0.173 0.014 0.345 0.028 0.518 0.028 3.1 0 5.827-2.203 6.495-5.311l0.732-5.487 0.481 1.954c0.904 2.72 3.436 4.547 6.3 4.547 0.411 0 0.818-0.049 1.221-0.126l1.573 4.729-2.503 0.832c-0.473 0.157-0.73 0.668-0.572 1.14 0.126 0.378 0.478 0.618 0.856 0.618 0.094 0 0.191-0.014 0.285-0.046l6.722-2.235c0.474-0.158 0.73-0.669 0.572-1.141zM13.119 19.201c-0.549 2.55-3.177 4.261-5.752 3.704v0h-0.001c-1.264-0.272-2.345-1.020-3.045-2.107s-0.936-2.381-0.682-3.569l2.579-8.332 8.041 1.739-1.139 8.566zM17.839 15.478l-2.077-8.461 7.808-2.597 3.434 7.932c0.409 1.227 0.313 2.54-0.264 3.695-0.579 1.155-1.573 2.017-2.801 2.425-0.496 0.167-1.012 0.25-1.53 0.25-2.086 0-3.929-1.331-4.568-3.243z"></path><path d="M26.001 12.86c-0.174-0.385-0.982-1.835-3.3-1.065-3.378 1.123-3.134-3.458-5.015-2.155l1.214 5.518c0.651 1.953 2.769 3.015 4.721 2.365 1.936-0.644 2.988-2.725 2.38-4.663z"></path><path d="M10.459 2.040c0.562-0.030 0.994-0.511 0.963-1.074s-0.512-0.995-1.074-0.964c-0.564 0.030-0.996 0.511-0.965 1.075s0.512 0.994 1.075 0.964z"></path><path d="M14.403 3.822c0.561-0.030 0.994-0.511 0.963-1.074s-0.512-0.994-1.074-0.964c-0.564 0.031-0.996 0.511-0.965 1.074s0.512 0.995 1.076 0.964z"></path><path d="M9.89 4.678c0.030 0.563 0.512 0.995 1.073 0.964 0.564-0.030 0.996-0.511 0.966-1.074s-0.512-0.994-1.076-0.964c-0.561 0.030-0.993 0.511-0.963 1.074z"></path></svg> 