<?xml version="1.0" encoding="UTF-8"?> <!-- Generated by IcoMoon.io --> <svg xmlns="http://www.w3.org/2000/svg" width="32" height="32" viewBox="0 0 32 32"><title>woman-avatar</title><path d="M10.31 18.714c1.268 0.19 2.815-0.101 4.506-0.202 0.315 0.071 0.631 0.119 0.958 0.119 0.333 0 0.661-0.048 0.988-0.125 4.399 0.214 7.827 1.458 7.827-7.494 0-6.077-3.946-11.012-8.815-11.012s-8.815 4.935-8.815 11.012c0 4.887 0.935 6.786 2.452 7.446 0.28 0.131 0.583 0.208 0.899 0.256zM8.905 7.577c0.923 1.28 3.315 1.006 5.381-0.613 0.524-0.411 0.982-0.881 1.351-1.357 0.048 0.006 0.095 0.012 0.143 0.024 0.202 0.036 0.387 0.107 0.595 0.173 0.185 0.089 0.387 0.161 0.565 0.274 0.185 0.095 0.351 0.226 0.518 0.339 0.149 0.131 0.315 0.256 0.44 0.399 0.131 0.131 0.256 0.274 0.351 0.411 0.107 0.131 0.185 0.268 0.262 0.387s0.143 0.226 0.179 0.321c0.089 0.185 0.143 0.292 0.143 0.292s-0.018-0.113-0.053-0.321c-0.012-0.107-0.042-0.226-0.077-0.369s-0.077-0.31-0.149-0.476c-0.060-0.173-0.143-0.351-0.238-0.542-0.089-0.19-0.22-0.375-0.345-0.577-0.149-0.185-0.286-0.387-0.464-0.565-0.167-0.19-0.369-0.351-0.565-0.524-0.185-0.131-0.381-0.274-0.589-0.387 0.089-0.185 0.161-0.375 0.22-0.554 0.738 0.333 1.494 0.756 2.095 1.357 2.208 2.208 1.339 4.774 3.042 3.077 0.268-0.268 0.488-0.548 0.661-0.827 0.060 0 0.119-0.006 0.167 0.006 0.232 0.060 0.381 0.238 0.464 0.381 0.232 0.387 0.286 0.946 0.143 1.506-0.214 0.833-0.762 1.327-1.202 1.381l-0.357 0.048-0.095 0.351c-0.845 3.065-3.125 6.327-5.702 6.327s-4.851-3.262-5.702-6.327l-0.095-0.351-0.357-0.048c-0.435-0.060-0.988-0.554-1.202-1.381-0.143-0.56-0.089-1.119 0.143-1.506 0.054-0.107 0.173-0.244 0.333-0.327z"></path><path d="M22.399 19.518c-0.69 1.178-1.494 2.173-2.554 2.72-2.19 1.119-3.821 2.036-3.821 2.036l-0.006-0.006v-0.018l-0.018 0.012-0.018-0.012v0.018l-0.006 0.006c0 0-1.625-0.905-3.821-2.036-1.060-0.548-1.857-1.542-2.554-2.72-3.244 1.321-5.506 4.345-5.506 6.994 0 2.786 0 5.488 0 5.488h23.81c0 0 0-2.702 0-5.488 0-2.643-2.268-5.673-5.506-6.994z"></path></svg> 