<?xml version="1.0" encoding="UTF-8"?> <!-- Generated by IcoMoon.io --> <svg xmlns="http://www.w3.org/2000/svg" width="32" height="32" viewBox="0 0 32 32"><title>woman</title><path d="M26.324 24.060l-5.108-1.277-0.295-1.18c3.524-0.593 5.337-1.649 5.417-1.696 0.189-0.111 0.307-0.312 0.323-0.531 0.015-0.219-0.083-0.433-0.255-0.571-0.024-0.019-2.407-1.987-2.407-8.805 0-5.751-1.345-8.667-4-8.667h-0.393c-0.957-0.925-1.676-1.333-3.607-1.333-2.505 0-8 2.519-8 10 0 6.819-2.383 8.787-2.4 8.8-0.177 0.133-0.277 0.345-0.267 0.567 0.012 0.223 0.132 0.423 0.323 0.537 0.080 0.048 1.876 1.109 5.421 1.701l-0.295 1.177-5.108 1.277c-3.341 0.836-5.675 3.825-5.675 7.273 0 0.368 0.299 0.667 0.667 0.667h30.667c0.368 0 0.667-0.301 0.667-0.669-0-3.445-2.333-6.435-5.676-7.271z"></path></svg> 