<?xml version="1.0" encoding="UTF-8"?> <!-- Generated by IcoMoon.io --> <svg xmlns="http://www.w3.org/2000/svg" width="32" height="32" viewBox="0 0 32 32"><title>yard-fountain</title><path d="M6.651 21.1h19.272v3.048h-19.272v-3.048zM30.996 24.65h-29.992c-0.556 0-1.004 0.448-1.004 1.004s0.448 1.004 1.004 1.004h0.592v3.55h28.899v-3.55h0.502c0.556 0 1.004-0.448 1.004-1.004s-0.448-1.004-1.004-1.004zM8.695 16.385c0 0.753 0.61 1.398 1.398 1.398 0.502 0 0.932-0.251 1.183-0.681 0.502 0.95 0.95 2.151 0.95 3.442h9.125c0-1.434 0.341-2.599 0.735-3.496 0.251 0.412 0.699 0.699 1.201 0.699 0.753 0 1.398-0.609 1.398-1.398 0-0.735-0.556-1.345-1.291-1.38h-0.108c-0.108 0-0.233 0-0.341 0-0.305 0-0.61 0-0.932 0-0.466 0-0.914 0-1.38 0-0.556 0-1.129 0-1.685 0-0.609 0-1.237 0-1.846 0-0.627 0-1.255 0-1.882 0-0.592 0-1.183 0-1.775 0-0.502 0-1.022 0-1.524 0-0.376 0-0.771 0-1.147 0-0.287 0-0.574-0.036-0.861 0.018-0.359 0.054-0.663 0.233-0.896 0.502-0.197 0.251-0.323 0.574-0.323 0.896zM19.308 5.486c-0.108 0.036-0.215 0.054-0.359 0.054-0.108 0-0.233 0-0.34-0.036-0.502-0.090-0.932-0.412-1.237-0.753-0.036 0.036-0.054 0.054-0.054 0.090-0.305 0.394-0.807 0.61-1.434 0.681-0.090 0-0.161 0-0.251 0-0.789 0-1.309-0.341-1.631-0.735-0.161 0.161-0.394 0.305-0.592 0.448 0.448 0.896 0.807 2.008 0.807 3.191h4.589c0-1.147 0.233-2.115 0.502-2.94zM10.738 10.308c0 0.753 0.61 1.398 1.398 1.398 0.502 0 0.932-0.251 1.183-0.681 0.502 0.95 0.95 2.151 0.95 3.442h4.571c0-1.434 0.341-2.599 0.735-3.496 0.251 0.412 0.699 0.699 1.201 0.699 0.753 0 1.398-0.61 1.398-1.398 0-0.735-0.556-1.345-1.291-1.38h-0.108c-0.179 0-0.376 0-0.556 0-0.466 0-0.932 0-1.398 0-0.628 0-1.255 0-1.882 0-0.663 0-1.309 0-1.972 0-0.556 0-1.129 0-1.685 0-0.341 0-0.681 0-1.022 0-0.376 0-0.771 0.090-1.058 0.359-0.305 0.269-0.466 0.663-0.466 1.058zM24.022 2.456c0 0-2.331-0.663-7.655-0.663s-6.777 0.61-6.777 0.61c-1.004 0.556-2.348 2.348-1.111 2.474 0.036 0 0.090 0 0.108 0 1.237 0 3.048-1.578 3.048-1.578s-0.556 1.452 0.197 1.739c0.108 0.036 0.215 0.054 0.359 0.054 0.341 0 0.681-0.143 0.986-0.305 0.412-0.251 0.753-0.592 0.932-0.896 0 0 0.251 1.129 1.542 1.129 0.054 0 0.143 0 0.197 0 1.488-0.108 1.345-1.345 1.345-1.345s0.681 1.201 1.506 1.38c0.090 0.036 0.161 0.036 0.215 0.036 0.645 0 0.843-0.592 0.843-1.434 0 0 0 0.251 0.143 0.538 0.161 0.359 0.502 0.807 1.291 0.807 0.090 0 0.197 0 0.287-0.036 0.789-0.090 0.538-1.237 0.251-1.685 0 0 1.309 1.703 2.33 1.703 0.251 0 0.502-0.108 0.699-0.359 0.86-1.094-0.735-2.169-0.735-2.169zM5.45 7.655c0.197 0.161 0.538 0.090 0.735-0.161s0.215-1.058 0.215-1.058-0.789 0.251-0.986 0.502c-0.161 0.233-0.161 0.574 0.036 0.717zM5.557 4.141c-0.287 0.108-0.448 0.394-0.359 0.645s0.394 0.341 0.699 0.251c0.287-0.108 0.753-0.789 0.753-0.789s-0.789-0.215-1.094-0.108zM3.657 7.978c0.197-0.251 0.215-1.058 0.215-1.058s-0.789 0.251-0.986 0.502c-0.197 0.251-0.161 0.592 0.036 0.735 0.197 0.161 0.538 0.072 0.735-0.179zM27.662 4.769c-0.251-0.161-1.058-0.197-1.058-0.197s0.287 0.789 0.538 0.95c0.251 0.161 0.592 0.161 0.735-0.054 0.126-0.233 0.036-0.538-0.215-0.699zM26.030 7.727c0.215-0.108 0.305-0.412 0.197-0.699s-0.843-0.699-0.843-0.699-0.143 0.807 0 1.094c0.125 0.287 0.43 0.412 0.645 0.305zM27.913 8.928c0.143 0.287 0.412 0.412 0.681 0.305 0.251-0.108 0.305-0.412 0.197-0.699s-0.843-0.699-0.843-0.699-0.179 0.825-0.036 1.094z"></path></svg> 